/* XPM */
static char *dfdb119d8b964d3efa3f357b9c7d6f9aGgTDCiwin0hp2vLv[] = {
/* columns rows colors chars-per-pixel */
"64 64 232 2 ",
"   c #171C2D",
".  c #1A1E30",
"X  c #1D2436",
"o  c #1B343E",
"O  c #22282F",
"+  c #242537",
"@  c #232B33",
"#  c #2B2B34",
"$  c #2A2C3C",
"%  c #29383B",
"&  c #3B333B",
"*  c #34383A",
"=  c #433A3B",
"-  c #34443B",
";  c #3B463A",
":  c #3D4C3B",
">  c #384D3E",
",  c #47483C",
"<  c #5A4A3E",
"1  c #44533B",
"2  c #49583D",
"3  c #54583E",
"4  c #634E3F",
"5  c #56683F",
"6  c #58693E",
"7  c #60753F",
"8  c #1B3A45",
"9  c #2D2C43",
"0  c #2A2C45",
"q  c #322E48",
"w  c #2D3948",
"e  c #333244",
"r  c #393649",
"t  c #3A364B",
"y  c #373551",
"u  c #3C3955",
"i  c #453E48",
"p  c #433C54",
"a  c #463C59",
"s  c #463B63",
"d  c #4A3C65",
"f  c #4D3E69",
"g  c #184857",
"h  c #1B555E",
"j  c #284547",
"k  c #374A44",
"l  c #3A5448",
"z  c #234D56",
"x  c #2F5656",
"c  c #195C67",
"v  c #155C70",
"b  c #2A5A66",
"n  c #355A65",
"m  c #156674",
"M  c #296875",
"N  c #326770",
"B  c #474643",
"V  c #584944",
"C  c #465944",
"Z  c #585A45",
"A  c #474159",
"S  c #4A435E",
"D  c #55495C",
"F  c #585858",
"G  c #624D41",
"H  c #664F49",
"J  c #6A5446",
"K  c #755A47",
"L  c #795C4C",
"P  c #745A51",
"I  c #4A6448",
"U  c #566944",
"Y  c #58744B",
"T  c #567655",
"R  c #5C7D51",
"E  c #676B45",
"W  c #76664D",
"Q  c #657A46",
"!  c #767848",
"~  c #7D6C54",
"^  c #647B53",
"/  c #727C53",
"(  c #4C4563",
")  c #4B4667",
"_  c #4D4369",
"`  c #584767",
"'  c #524A6C",
"]  c #5A5063",
"[  c #554E72",
"{  c #5A4976",
"}  c #575076",
"|  c #595077",
" . c #5B5179",
".. c #634C69",
"X. c #67566C",
"o. c #785A67",
"O. c #644D7C",
"+. c #675576",
"@. c #745A77",
"#. c #43656E",
"$. c #786477",
"%. c #89674C",
"&. c #926D4D",
"*. c #99724E",
"=. c #866751",
"-. c #936D51",
";. c #877252",
":. c #9C7452",
">. c #987B55",
",. c #A27654",
"<. c #A47A54",
"1. c #AA7C54",
"2. c #836B7C",
"3. c #5E8150",
"4. c #698448",
"5. c #6B844B",
"6. c #758B45",
"7. c #788849",
"8. c #7B9346",
"9. c #7A954B",
"0. c #678754",
"q. c #778457",
"w. c #6C945A",
"e. c #769957",
"r. c #7CA45A",
"t. c #6B936C",
"y. c #759966",
"u. c #76A463",
"i. c #7CAA61",
"p. c #848A4B",
"a. c #87884D",
"s. c #87954B",
"d. c #829C49",
"f. c #93964F",
"g. c #859955",
"h. c #999952",
"j. c #A2855A",
"k. c #AB895B",
"l. c #B68757",
"z. c #8AA64B",
"x. c #94A94D",
"c. c #97B34E",
"v. c #9BB94E",
"b. c #88AA56",
"n. c #83AC5D",
"m. c #99A755",
"M. c #8DB256",
"N. c #86B05D",
"B. c #8AB059",
"V. c #93B553",
"C. c #9BB653",
"Z. c #9BB951",
"A. c #98B35A",
"S. c #A7A856",
"D. c #A4B353",
"F. c #ABB354",
"G. c #A4B951",
"H. c #ABB954",
"J. c #A8B559",
"K. c #B3BA56",
"L. c #B4B45B",
"P. c #B5B959",
"I. c #BCBA5A",
"U. c #9A8361",
"Y. c #A98D61",
"T. c #AE9163",
"R. c #B69561",
"E. c #BB9C65",
"W. c #86A763",
"Q. c #97AB63",
"!. c #ABB261",
"~. c #C1BC5B",
"^. c #C79D63",
"/. c #CAA568",
"(. c #D1A667",
"). c #D2AB6B",
"_. c #D7B16E",
"`. c #DCB670",
"'. c #DFB871",
"]. c #137687",
"[. c #2D7988",
"{. c #654E82",
"}. c #655383",
"|. c #6B5688",
" X c #6C558A",
".X c #71568E",
"XX c #71588E",
"oX c #7A5B89",
"OX c #755993",
"+X c #775993",
"@X c #7C5C9A",
"#X c #7C6490",
"$X c #815F85",
"%X c #825F90",
"&X c #805D9E",
"*X c #876787",
"=X c #90738E",
"-X c #876498",
";X c #8C669C",
":X c #946C94",
">X c #996E92",
",X c #946B9D",
"<X c #996E9D",
"1X c #9C7795",
"2X c #9D719D",
"3X c #A4759D",
"4X c #A7789D",
"5X c #A9799E",
"6X c #9D76A2",
"7X c #A878A0",
"8X c #148A95",
"9X c #2B8999",
"0X c #1398A6",
"qX c #3297A8",
"wX c #19A5AC",
"eX c #2DADB7",
"rX c #448E9E",
"tX c #43ABB8",
"yX c #05AFC2",
"uX c #38B4C6",
"iX c #57B1C4",
"pX c #34C4C7",
"aX c #61D5E3",
"sX c #A7869B",
"dX c #B58DA9",
"fX c #B995A9",
"gX c #C99BB5",
"hX c #CDA3BA",
"jX c #D3A5BD",
"kX c #DBAEC3",
"lX c #DDB0C5",
"zX c #E3B5C9",
/* pixels */
"yXyXc z v ].tXaX].% - h ].8X9Xn g ].].v , k % ; g g [.m ].b b uX9X* , j j k , 8 h N Z C M g x M z ; [.m m * 3 N uX0X8Xh h 8XqXaX",
"yX].6 z.: - l z k I w.- E C l h.E % T C S.! 7 d., ! C Q l 0.C n j f.S.w.0.f.h.: R ! I.S.; , S.! 2 z.C C % ! L.C N c g Q 8.x tXaX",
"yXv 1 c.d.z.d.2 x.m.m.f.~.a.a.I.! : e.h.L.S.c.d.s.H.b.V.x.V.Q f.a.a.I.L.L.~.a.7.L.L.H.G.z.! S.G.8.c.z.B.f.f.h.a.S.E I V.c.C iXqX",
"c I C 0.V.v.v.d.C.G.H.P.I.D.P.H.D.f.f.~.I.~.H.F.G.v.Z.Z.v.v.C.H.K.P.H.K.K.H.F.H.I.~.I.K.H.H.G.v.v.v.v.G.G.H.P.K.m.Z w.b.7 1 N 8X",
"g w.r.V.Z.V.V.Z.v.v.v.v.G.v.G.v.v.v.G.H.D.D.m.f.s.9.b.C.Z.v.v.v.v.G.v.G.v.z.8.8.f.m.D.F.H.H.C.A.C.Z.Z.v.v.C.G.G.z.e.r.b.z.c.C ].",
"].k C r.B.n.i.i.A.H.I.H.C.V.M.b.d.6.6 Z ; Z F X.2.p I i.i.B.G.P.K.G.V.V.B.5 D 2.D F Z ; Z U 3.w.e.r.n.C.P.I.G.V.V.n.n.c.8.2 n 8X",
"[.U d.z.Z.M.n.B.B.A.H.A.M.b.1 F F X.$.sXfXhXhXgXgX1XC r.B.n.M.H.J.A.B.M.b.B sXzXdXgXgXfXdX2.X.F F 1 b.M.J.H.A.M.B.V.n.V.c.> 9XwX",
"iXI 4.6.z.6.x.D.W.i.n.W.n.e.@ $.jXzXhXgXsXgXgXlXkXfXe 9.x.4.R ^ ^ ^ 4.e.0.e fXjXhXhXgXdXhXzXkXgX$.@ b.W.n.W.W.n.n.n.i.i.n.I [.0X",
"qXl E E E a.m.I.L.W.W.!.Q.g.$ O.-XfXkXhX@.+.=X=XX.u X i D ` @.@.@.+._ D B X u X.=X=X=X1XhXkXdX#XO.* S.!.y.Q.Q.Q.Q.B.M.n.i.g.E M ",
"C h.m.A.A.L.J.Q.W.A.J.G.K.S.* .X+Xu D '  .[ [ [ [ ' $ oX<X;X:X:X>X:X;X3X*X$ ' [ [ ' [  .' D u +X.Xe e.Q.A.G.H.K.K.G.v.V.W.S.f.n ",
"j , 8.Z.V.b.Y ^ w.u.i.n.B.4.$ .X&Xd a [ [ ' ' | | [ q +.|.O.[ p p ' O.|.+.q ' | ' A [ | [ a d &X X$ 0.u.i.r.b.e.0.Q c.Z.M.4.w qX",
"[.- p.Z.V.U r sX2.F Y Q , i ( _ O._ ' [ ' ( ( ' ' ( ( [ [ [ ' [ | ( ' [ ' S ( ' [ ( [ |  .' _ O._ ( r : Y Y F 2.sXr 6 v.v.v.Q c ",
"l s.m.V.6.r fXzXzXhXsXX...:X,X+X_ q ' | | [ S ' ' ' | [ S ( ' ' | [ ( S ' [ ' ' ' A [  .| ' q _ +X<X>X....1XhXzXzXfXr 7.C.Z.z.z ",
"j 2 r.n.1 *XgXjXgXgXjX@.` 7X:X|.) ( S ' ) ' A ' ) ( ( p r r p p p u u r p ( ( ) ' A ' ' ' ( ( ) |.:X7X` @.jXgXgXjXgX*Xk r.0.1 h ",
"b 8.v.8.e hXlXjXgXsX@.$ r ..( |  .[ p ' ( u 9 r B J K &.%.K K K %.*.*.&.&.K J B r 9 u ) ' p [ | | ( ..r $ X.1XgXjXlXhXe 6.Y g 0X",
"z 5 6 : ] lXzXkXjX=X+ e X 9 S |  .} u q + & G *.j.1.l.l.<.&.*.j.l.R.>.<.1.l.R.j.*.K V * q u [ | | S 9 X e + =XjXkXzXlX] 6 f.k c ",
"c ; p.Z r @.*X#X-XO.+ e e r p [ ( u V K K =.>.>.:.*.>.j.k.k.T././.k.>.j.j.j.>.>.:.>.>.%.K H p ) [ p r e e + O.-X#X*X@.r 6 f.a., ",
"z d.G.E X {.+X X@X@Xa r r r r e & = G %.R.`.`.`._._.`.`.`.`.`.`.`.`.`.'.'.`._._._._./.j.&.:.%.& e r r r r a @X@X X+X{.X 6 F.E o ",
"v 5 V.s.$  X+X}.+X@X_ r r r + # V K K &.k./.^./.`./.k.Y.T./.^././.T.T.T.Y.k./.`.`.).(.E.>.%.L V # + r r r _ @X+X}.+X X$ 7.m.d.; ",
"g Q V.r.$ {.+X+X}.' a e e $ # V L :.1.E./.(.)._.`._./././._._._._.)././././.).`.`._.(./.E.<.:.J V # $ e e a { }.+X+X{.% Q C d.: ",
"7 c.G.D., y d O.oX@.a $ ] *XsX$.K &.&.:.:.j.R.E.)./.j.j.^.^././.E.E.E.E.E.E.(./.(.E.j.:.:.&.J V $.*XD ] $ a @.+XO.d q - w.- : z ",
"C 6.D.I.E y -X2X@.9 X.fXlXzXzXlXfX$.# L j.R.E.E.)./.E./.(.(.)./.E.E.E.E.E.E.(.(./.E.k.:.J # $.fXkXgXfXzXfXX.9 @.2X%X0 I w.w.V.Q ",
"M C S.K.5 X X.5X` 9 6XfXjXsXjXzXzX=Xu K R._.`.`.`._.>.~ ~ ~ U.T.T.U.~ ~ ~ >._.`.).(./.l.J u =XjXgXgXdXjXfX6X9 ` 5XX.X 1 I I x.U ",
"j S.~.K.U . s *XD ` 3X<X-X( $.1X@.+X Xi K j.).(.E.~ r dXfXfXfX*X*XgXfXgXdXe ~ k./._.j.%.B  X+X+.=X*X+.-X<X3X` D *Xs . 3 h.3 * b ",
"o E s.G.8.@ ' .Xy ` 5X<X<X>X@.p f +X{.i :.l./.).).V X.gXgXgXgXgXlXzXlXgXgXX.V )._._.^.<.B {.+X_ p @.>X<X<X5X` y .X' @ f.K.! E k ",
"- Q U x.x.O d @X}.oX,X,X3X5X5X3X+X+X' a V K :.l.>.$ 1XlXgXsXlXzXzXkXdXgXlX1X$ >.l.1.K V a ' +X+X3X5X5X3X:X,XoX}.@Xd O x.v.c.I.3 ",
"; 8.d.B.r.- a |.}.;X5X3X2X<X<X:XO.' ` 4X:X$X2.o.i X X.6X:XS X.X.X.X.` :X6XX.X B =X2.oX-X3X` ' O.:X<X<X2X3X5X;X}. Xa - c.v.8.E 8 ",
"g # 8.V.M.U 0 .X@X-X5X5X5X4X3X*X9 a 1X5X<X3X5X5X` S 4X3X2X:X>X>X>X>X:X3X3X4XS ` 2X2X<X<X3X1Xa 9 oX3X4X5X5X3X-X@X.X0 Y V.V.0.% ].",
"h l 4.W.V.z.* { |..X:X3X,X,X3X1X|.*X<X,X;X3X3X4X..$X3X4X2X,X5X5X5X5X5X5X5X5X$X` <X2X3X<X,X<X*X|.1X5X5X3X5X:X.X|. .* e.B.n.w.* m ",
"k y.t.t.W.W.Q y .X+X+X,X,X2X<X<X-X<X3X3X3X3X3X=X` -X,X,X;X;X,X3X5X3X,X2X2X,X-X` *X2X5X3X3X3X<X-X,X3X5X<X,X+X+X.Xy Y n.n.r.9.8.j ",
"g C C g.!.L.L.E u {.@XXX-X3X5X3X2X<X<X<X2X3X3X5X4X5X2X,X5X5X4X5X5X3X3X3X4X5X5X4X4X3X3X2X,X,X,X2X3X5X3X-XXX@X{.u E C.v.M.W.M.6.j ",
"c 6.6.b.M.B.W.u.R k d  .,X3X,X2X3X5X5X3X2X2X;X<X3X5X2X;X2X3X5X3X2X3X<X,X,X<X3X5X,X;X2X<X3X4X3X3X2X2X3X,X} d k 6.A.C.v.V.C.G.s.c ",
"c 8.v.v.v.M.n.n.B.e.I $ _ :X3X2X-X2X5X5X4X3X,X;X,X2X,X2X3X3X5X3X;X3X3X3X2X<X3X5X,X,X3X5X5X5X<X-X2X4X:Xd $ I r.B.A.A.v.v.x.6.6.h ",
"j 6.v.v.v.v.V.Z.v.V.V.s.; q +.:X-X,X3X3X3X,X;X;X,X2X3X5X5X5X5X,X,X5X5X5X5X3X2X<X;X;X,X2X2X3X<X;X:X+.q - 6.Z.J.J.J.L.H.G.s.: C g ",
"j 6.d.B.B.M.M.v.v.V.B.B.g.@   q { *X<X,X2X5X4X3X2X2X,X,X,X2X<X;X;X<X2X,X,X-X;X2X3X4X5X<X,X2X*X..q   @ z.V.B.M.M.i.W.Q.Q.e.w.M.1 ",
"m * d.Z.V.V.n.B.V.n.B.v.x.@ 0 ( u r a ` +.>X4X5X5X5X,X3X5X5X5X4X4X5X5X4X5X2X3X5X5X4X>X+.` a r u ( 0 @ z.n.M.v.G.V.n.M.n.n.0.1 z ",
"8X% 4.d.4.0.Q.W.y.Q.Q.A.S.# y  .| ( ( u q r p ....` d @.*X*X*X*X*X*X*X*X@.` ......p r q u ( (  . .y @ y.Q.Q.D.I.I.A.v.v.C.s.# g ",
"j E ! ; E f.I.I.!.I.I.I.S.# q ' ' A [ | [ ' A ( y y q 0 $ $ 9 9 9 9 $ 0 0 q y y ( A ' [ | [ A ' ' q @ S.I.I.I.I.I.I.G.G.H.h.f., ",
"3 I.P.S.P.P.L.Q.J.K.G.G.b.@ y ' ( S [ } | ' (  .|  .| [ S S [ [ [ [ S p ' [ | |  .( ' | } [ S ( ' y @ m.H.C.J.Q.A.I.P.G.v.c.7.k ",
"k 6.v.K.V.i.i.u.n.V.M.i.e.@ y | | ( A [ O.' ( | ) ( ' ' p S [ [ | [ A ( ' [ [ ( | ( ' O.[ A ( | | y @ r.V.N.i.r.n.C.v.v.H.s.6 % ",
"b Q M.B.i.B.n.n.n.i.n.n.z.@ e ( ) ' ( +X@X+X.XXX|.{ ' } [ ( A ' ' ' )  . . .O.' }..X+X@X+X( ' ) ( 9 @ e.i.n.n.v.V.V.v.v.Z.V.z.j ",
"Q v.v.C.A.G.Z.v.V.M.V.V.d.O y ( ( S { XX+X@X@X@X@X@X X+X@X+X .+X@X@X@X@X+X X@X|.+X@X@X@XXX{ S ( ( y O 9.M.Z.V.v.v.V.n.M.n.e.C m ",
"Q z.d.S.I.A.M.B.n.i.n.e.;   y ) ' | XX@X+XXX+X}. XXX}. X X}.[  X.X.X.X X X|. X|.}.+X+X@X@XXX| ' ) y   ; e.B.B.B.M.i.i.i.N.B.r.Y ",
"z % * m.C.V.B.i.u.i.u.l V O q A (  .+X+X+X@X+X . ._ A H ~ j.Y.T.T.T.Y.~ H A _ O. .+X+X X X+X .( A q O V l u.u.y.t.t.I C Y 4.x.Q ",
"k w.I 4.V.v.V.B.n.i.T & J = q ( S ( }.}.+X@X .r B ~ >.j.j.>.;.;.;.;.>.j.j.>.~ B r  .+X+X}.}.( S ( q = J & T y.Q.Q.y.f.a.E E : o ",
"- w.b.b.B.V.v.v.C.A.U = L V $ ( [  .}.|.&X+Xq W ~ V , J %.&.%.%.%.%.&.%.J , V ~ W q .X&X@XXX| [ ( $ V L = U !.I.I.L.I.~.I.P.3 M ",
"o U K.H.G.G.v.v.C.x.3 . J <.J 9 ( '  X}.+Xf = V V %.1.l.,.<.1.1.1.1.<.,.l.1.%.V V = f +X|.+X' ( 9 J <.J . 3 S.F.G.K.G.H.G.G.h.x ",
"; 6.s.V.B.B.V.b.8.6.1 + = <.1.V e ) }.XX@Xs   , 1.1.%.J & # & & & & # & J %.1.l.,   s @XXX}.) e V 1.<.= + 1 6.8.z.Z.v.v.v.z., M ",
"N k 0.n.n.r.0.0.4.7.2 & = = L j.j.B d  X@Xd O *.l.G + q 0 0 ) ' ' ( + 0 q + G l.:.O d &X.Xd B j.j.L = = & 2 7.4.4.n.B.v.v.x.6 h ",
"uXg U z.v.V.6.4.4.4.1 & H # = >./.j.W V d y , l.K . u  .( a |.XXXX|.a )  .u . K l., y d V W j./.>.= # H & 1 4.4.6.z.n.V.B.N.9.m ",
"N 3 E 3 4.e.7.7./ T k & L G -.V V R._.E.Z   G 1.V 0 }.|. X{ -X;X-X-X}. X|.}.0 V 1.G   Z E.).R.V V -.G L & k ^ R R R e.n.i.b.C 8 ",
"n m.P.S.S.S.a.p.7./ B & %.L ,.K %.%.J J ;.V G 1.< s @XXX-XXX,X2X,X,X+X X X@Xs V 1.G V ;.J V K %.K ,.L %.& , 7.7.7.4.6.w.u.r.0.x ",
"M Q v.b.g.g.4.^ R 4.1 & =.L :.%.,.<.K R.(.W G l.4 s &X@X>XXX,X,X2X<X-XoX+X&Xs 4 l.G W (.R.= -.<.%.:.L =.& 1 7.7.7.6.6.9.M.4.% qX",
"9Xw 6.c.9.4.R R ^ R k & L P :.l.1.,.W E.(.W G l.4 s &X&X2XoX,X3X4X<X-X2X&X&Xs 4 l.G W (.E.W ,.1.l.,.P L & : 4.4.4.4.6.c.v.8.: j ",
"n a.D.Z.V.z.9.4.6.4.: & P H ,.l.1.1.:./._.W G l.4 s &X&XO.+.<X5X5X,X;X2X-X&Xs 4 l.G W _./.:.1.1.l.,.H L & : 7.7.a.m.x.C.v.d.d.l ",
"b Y d.M.V.V.8.6.6.6.U # V V :.-.1.l.:.k.'.W G l.4 s @X@X{ oX<X2X<X,X@X;X&X@Xs 4 l.G W '.k.:.l.1.-.:.V V # U 4.4.0.b.J.A.A.4.k [.",
"eXh ^ B.M.V.9.6.6.4.4.2 @ * K G ,.l.%.=.'.W G 1.< s XX@X+X}.,X;X-X,X.X@X+XXXd < 1.G W '.;.*.l.<.J =.# @ 2 4.4.4.4.0.r.i.N.z.I ].",
"[.U L.~.J.W.W.y.w.q.^ 4.Q E * * L 1.G W (.;.G ,.G d +X@X.X' &X@X&X-X{ .X@X+Xd G <.J ;.(.;.%.K K = & * I ^ ^ 6.a.p.g.c.n.r.d.U rX",
"x S.L.I.P.J.I.!.Q.L.a.p.a.a.! Q < -.&.J K , # H K a  . X' d +XXX@X&Xd _  X .a K J & J J = = k B B Z / q.a.p.a.L.L.K.M.u.u.Y j iX",
"N E , s.C.G.K.H.I.P.x.p.7.q.a.a.E 3 , ; U U Z E C , ; i r r ] ] X.X.r r i ; 1 2 5 U I B E Z q.a.7.a.7.a.p.p.f.J.J.P.W.t.u.u.l tX",
"eXh 2 z.M.v.z.B.M.Z.V.w.0.R 4.7.6.6.7.7.a.a.p.6.p.7.Q Q Y Y Q 4.Y Y Y Q 6.6.7.7.7.a.a.p.6.Q ! Q ^ ^ T 7.c.b.n.u.e.M.n.u.y.l h qX",
"pXb d.Z.Q 9.2 0.R w.0.0.b.9.9.4.z.6.U 8.7.6.Q 4.5 I 4.R R R C I I 2 4.R 4.Q 7.E Q 6.7.6.4.Y - I w.Y Y r.0.r.e.b.2 6.6.8.Z.U [.0X",
"eX8XC Q l b m N l y.Y * 5 1 z.1 Q 8.- - 6.8.5 Q ; Q 6 I U 4.U o z 3 7 k 2 - 3 * 4.4.6.8.C Y % U 8.l l I - b.U k 8 b 8 U z.C tXpX",
"wXwX].[.tXuXwXuXM k % m ].m ; c [.x N v I Q m c o ; % w j ; % m 0Xh z [.[.[.n b ; % Q 3 b [.rXN #.iX9X9Xg : - 9X0XwXqXrXn M eXaX"
};
