/* XPM */
static char *b841cd49ff414a7fb3ca9849683ba61fFZwcis1zrzjsUVPY[] = {
/* columns rows colors chars-per-pixel */
"64 64 234 2 ",
"   c #151B2D",
".  c #181D2E",
"X  c #191E31",
"o  c #1D2234",
"O  c #192F3C",
"+  c #242A34",
"@  c #262836",
"#  c #23253B",
"$  c #2B2C3A",
"%  c #302F3B",
"&  c #2C3335",
"*  c #29383B",
"=  c #35393B",
"-  c #34443C",
";  c #3A4638",
":  c #3C4B3B",
">  c #384D3E",
",  c #444B3B",
"<  c #45493C",
"1  c #44543B",
"2  c #4A593D",
"3  c #53563E",
"4  c #57683E",
"5  c #5A6C3F",
"6  c #1B3A45",
"7  c #292842",
"8  c #2C2C44",
"9  c #322D48",
"0  c #273D43",
"q  c #383747",
"w  c #3A3553",
"e  c #453A59",
"r  c #523F5D",
"t  c #4B3E63",
"y  c #523E6F",
"u  c #184857",
"i  c #1B555E",
"p  c #284547",
"a  c #374946",
"s  c #3A5449",
"d  c #234D57",
"f  c #255457",
"g  c #365755",
"h  c #195C67",
"j  c #155C70",
"k  c #295A66",
"l  c #375A64",
"z  c #116571",
"x  c #186877",
"c  c #286269",
"v  c #36636A",
"b  c #296875",
"n  c #366876",
"m  c #34717B",
"M  c #4A4647",
"N  c #544C4B",
"B  c #435441",
"V  c #445A43",
"C  c #485A48",
"Z  c #585846",
"A  c #4E4E56",
"S  c #675A54",
"D  c #705F58",
"F  c #4A6449",
"G  c #586A43",
"H  c #5D7243",
"J  c #57754C",
"K  c #4A6451",
"L  c #587951",
"P  c #636845",
"I  c #6B6C45",
"U  c #627441",
"Y  c #647B44",
"T  c #687849",
"R  c #757947",
"E  c #666557",
"W  c #76685A",
"Q  c #4B4164",
"!  c #57436A",
"~  c #575B64",
"^  c #5C4679",
"/  c #6E4F72",
"(  c #654B7B",
")  c #43656E",
"_  c #787566",
"`  c #72716E",
"'  c #83745F",
"]  c #856F62",
"[  c #8B7764",
"{  c #947D68",
"}  c #5E8254",
"|  c #6A8449",
" . c #6A844A",
".. c #748B45",
"X. c #768848",
"o. c #7A9346",
"O. c #799349",
"+. c #668854",
"@. c #708F54",
"#. c #6C945A",
"$. c #759958",
"%. c #7CA358",
"&. c #7FAB5F",
"*. c #6D956C",
"=. c #759863",
"-. c #739D6C",
";. c #7C9D6B",
":. c #6B9572",
">. c #76A464",
",. c #7CA563",
"<. c #7CA962",
"1. c #73A169",
"2. c #87884C",
"3. c #88964B",
"4. c #829C49",
"5. c #93974F",
"6. c #8E8E50",
"7. c #869754",
"8. c #979952",
"9. c #A19E53",
"0. c #86A34C",
"q. c #8AA449",
"w. c #8DA94C",
"e. c #95A44E",
"r. c #92AC4C",
"t. c #95B24D",
"y. c #9AB54E",
"u. c #9BB94E",
"i. c #85A856",
"p. c #8BAC53",
"a. c #84AD5D",
"s. c #8AAE5B",
"d. c #9AA856",
"f. c #91AD5D",
"g. c #8DB256",
"h. c #87B05C",
"j. c #8AB059",
"k. c #94B553",
"l. c #9BB653",
"z. c #97B851",
"x. c #9BB850",
"c. c #93B15A",
"v. c #9CB25C",
"b. c #A0B94F",
"n. c #A7A855",
"m. c #B1AD57",
"M. c #A3B655",
"N. c #ABB555",
"B. c #A4B951",
"V. c #ABB954",
"C. c #A4B45C",
"Z. c #ACB65B",
"A. c #AEB858",
"S. c #B3BA56",
"D. c #B7B65A",
"F. c #B3B55C",
"G. c #B5B959",
"H. c #BBBA5A",
"J. c #9A836A",
"K. c #819D6A",
"L. c #8B8677",
"P. c #A98D71",
"I. c #AC9573",
"U. c #B69A76",
"Y. c #83A463",
"T. c #8AA566",
"R. c #83AA61",
"E. c #8CAD61",
"W. c #84A169",
"Q. c #8BA369",
"!. c #93A567",
"~. c #95A767",
"^. c #93AD61",
"/. c #9BAA64",
"(. c #97B060",
"). c #A4AE63",
"_. c #A8AF62",
"`. c #A6B061",
"'. c #ACB161",
"]. c #B4B561",
"[. c #B9A479",
"{. c #C1BB5B",
"}. c #C9AB7C",
"|. c #0D7588",
" X c #1B7887",
".X c #277886",
"XX c #327A8C",
"oX c #6A4D88",
"OX c #765387",
"+X c #775396",
"@X c #885D90",
"#X c #91638E",
"$X c #996898",
"%X c #A26E9A",
"&X c #A8719A",
"*X c #148A95",
"=X c #2A8796",
"-X c #328A98",
";X c #1398A6",
":X c #3297A8",
">X c #19A5AC",
",X c #2DADB7",
"<X c #478798",
"1X c #4295A4",
"2X c #43ABB8",
"3X c #05AFC2",
"4X c #38B4C6",
"5X c #51B1C2",
"6X c #68B2C7",
"7X c #34C4C7",
"8X c #53D4DE",
"9X c #7FD7EB",
"0X c #9A978A",
"qX c #A99E81",
"wX c #AEA68B",
"eX c #B0AFAB",
"rX c #CAB58A",
"tX c #D7B987",
"yX c #DDC18D",
"uX c #DDC895",
"iX c #E2CB98",
"pX c #E6D49E",
"aX c #D8CDAD",
"sX c #EAD9A6",
"dX c #E4D9B8",
"fX c #EFE1AF",
"gX c #F1E3AC",
"hX c #F3E6B7",
"jX c #BDBEC0",
"kX c #D8D4CA",
"lX c #E7DFCA",
"zX c #F7EDC7",
"xX c #F1E9D1",
"cX c #FEFCEE",
/* pixels */
"3X3Xh d z  X2X8X X* - i |.*X=Xv u |.|.j , a * : u u .Xx  Xk c 4X=X= , p p a , 6 i m Z C b u g m d : XXz x = 3 m 4X;X*Xi i *X:X9X",
"3X|.5 q.: - s d a F #.- I C a 8.I * J C n.R 5 4., R B Y s +.C l p 6.m.@.+.5.9.: L R H.n.; < n.R 2 w.B V * R D.B v h u U o.g 2X9X",
"3Xj 1 t.4.w.4.2 r.e.f.6.{.2.6.H.R : $.8.m.n.t.4.3.V.i.z.r.k.T 5.6.2.{.Z.F.{.2.X.F.m.V.B.w.R n.V.o.r.0.s.5.8.8.2.m.I F z.t.C 8X:X",
"h F V +.k.u.y.4.y.B.V.G.H.M.G.N.M.e.5.{.H.{.V.N.B.u.x.x.u.u.l.V.S.F.V.S.S.V.N.V.{.{.H.S.V.V.B.u.b.u.u.B.B.N.F.S.e.Z #.i.5 1 m *X",
"u #.&.k.y.z.z.x.u.u.u.u.B.u.B.u.u.u.B.S.V.V.S.S.V.l.v.l.z.y.u.u.u.B.u.B.u.u.u.u.S.S.V.S.S.V.v.c.l.z.x.u.u.u.B.b.w.$.&.i.q.t.V  X",
".Xa V %.j.a.<.<.c.V.H.V.l.k.g.j.z.u.x.y.u.u.u.k.a.<.<.<.<.s.M.G.S.B.k.k.j.z.u.u.u.u.u.u.z.s.&.<.<.<.a.v.G.H.B.k.k.a.a.y.o.2 v *X",
"XXG 4.w.x.g.a.j.s.v.V.C.c.j.g.j.g.z.a.a.j.g.k.j.j.z.k.a.j.a.c.V.C.c.j.g.g.j.u.a.a.g.j.k.j.a.z.z.a.j.s.g.C.V.v.g.j.k.a.k.t.> =X>X",
"5XF | ..0...r.M.T.Y.a.Y.a.a.a.<.a.a.a.g.a.g.z.z.s.s.s.k.B.f.,.a.Y.a.a.a.&.a.j.a.g.a.j.z.u.s.s.p.s.B.v.Y.a.Y.R.a.a.a.<.<.a.F .X;X",
":Xa P P P 2.d.H.F.Q.Q._./.^.s.j.j.<.j.k.z.z.f.^./.!.~./.H.F./.;._././.s.j.g.<.a.k.k.z.k.s././.!./.F.H.'.;./././.E.j.g.a.<.7.I b ",
"C 8.d.v.v.F.C.^.E.C.C.B.S.S.V.u.z.s.c.C.C.C.C.S.C.v.F.Z.v.R.v.v.B.V.S.S.B.u.j.f.C.C.C.v.A.A.v.Z.Z.C.E.^.v.M.V.S.S.B.u.k.E.n.6.v ",
"p , o.z.k.s.<.<.<.<.<.a.g.s.c.u.u.l.b.b.B.V.B.u.z.k.g.a.<.<.<.<.a.j.j.c.z.u.x.u.b.B.V.B.u.x.k.g.a.<.<.<.<.&.j.j.s.k.u.z.c.| 0 -X",
"m - o.x.k.g.a.g.k.&.a.c.v.C.F.B.u.u.u.B.S.G.S.V.u.k.g.j.j.z.a.&.j.l.v.F.M.u.u.u.u.V.G.S.S.B.z.k.j.a.k.g.<.a.c.v.Z.A.u.u.u.z.Y h ",
"s 3.c.z.u.u.u.u.u.z.z.v.Z.v.v.A.M.M.k.z.l.u.B.B.u.u.u.u.u.u.x.z.v.C.C.(.Z.V.M.l.k.z.l.u.B.B.u.u.u.u.u.u.z.k.C.C.v.C.A.M.v.x.0.f ",
"p 2 %.a.k.u.u.u.u.k.j.g.k.a.<.R.R.R.<.<.&.s.j.k.y.u.u.u.u.u.t.p.i.g.s.<.R.R.R.<.<.<.a.j.g.z.u.u.u.u.u.u.k.j.k.g.a.<.R.R.<.+.1 i ",
"k o.u.u.z.s.Y.Y.s.Y.R.z.V.V.s.k.k.g.j.g.k.z.x.u.u.u.k.Y.+.1 a a - - 2 O.j.z.g.g.g.k.z.z.u.u.u.z.a.Y.a.a.Y.s.u.V.M.a.z.g.j.H u ;X",
"d 4 5 | ,.K.'./.W.'.'.C.H.{.F.l.u.V.S.S.H.l.g.Y.,.Y.;.T 8 y oXoXOX/ r & U y.B.V.S.H.V.z.R.,.Y.;.!.'.Q.Q.'.'.Z.{.H.Z.u.u.V.5.a h ",
"h ; 2.8.C._.H.H.H.H.S.H.H.Z.H.S.B.B.V.V.v.Y.W._.!./.2.q ^ +X@X#X$X%X@Xt o X.B.V.V.B.T.W././.!.'._.H.F.H.H.S.H.F.F.H.V.B.B.5.6., ",
"f 4.B.H.V.C.v.R.c.V.u.c.E.R.A.S.B.u.B.S.Z.F.F.V.H.S., w oX( $X&X$X$X&X$X! Z u.B.V.F.'.F.V.S.H.M.C.^.R.M.B.z.c.R.s.S.V.B.B.N.P O ",
"j 4 k.M.j.<.<.<.&.j.a.<.j.a.j.x.u.B.V.B.V.V.u.u.M.7.+ ! ^ # / &X&X#X%X&X#XB u.V.B.V.S.B.u.l.v.a.<.<.<.a.j.&.<.j.a.g.u.u.d.d.4.: ",
"u U k.j.&.k.g.j.s.<.a.j.z.u.z.z.u.z.a.z.u.u.u.z.g.#.$ ! ^ # r &X&X@X$X&X! , z.j.g.u.u.u.x.k.a.a.z.j.g.a.<.j.j.u.x.z.z.u.| V 4.: ",
"U t.B.V.A.V.z.x.z.g.z.x.z.u.z.a.a.<.<.a.z.z.B.G.V.5.$ e ( w e %X&X! #X$X9 V a.<.a.k.z.l.S.S.V.A.M.z.x.k.g.z.z.x.u.g.<.a.#.- > d ",
"C ..M.H.Z.c.a.a.<.<.<.a.<.<.,.<.<.<.>.<.a.k.V.H.H.A., 8 t w e $X%X! @XOXq #.<.>.,.a.g.B.G.H.H.C.j.a.&.<.<.&.a.<.<.,.<.<.#.#.k.Y ",
"b C n.S.x.z.j.&.<.<.<.-.-.:.:.;.Y.Y.K.-.k.V.G.H.H.l...+ # o 7 @X#Xr #Xe K Y.Y.W.-.s.B.S.H.H.B.z.z.a.<.<.<.>.-.-.:.:.,.| F F w.G ",
"p n.{.S.V.u.u.k.j.R.,.;._.F.Q.'.'.F.D.).A.B.B.V.G.V.b...-     ! ( e / o P m.'.H._.Z.V.B.V.H.V.B.u.z.k.a.R.;.W.'._.!.F.8.9.3 = k ",
"O I 3.B.B.u.u.u.B.M.Z.F.H.S.H.H.H.H.H.{.H.H.B.B.V.B.b.r.; M [ ` Q M L.' + I H.G.{.H.H.V.B.V.B.B.u.u.u.B.M.Z.D.H.G.H.G.H.S.R I a ",
"- Y H e.B.B.l.u.u.u.u.B.V.u.V.b.u.l.B.H.G.H.S.G.V.B.l.1 $ = 0XlXkXkXxXwXM & X.B.H.H.G.G.G.S.B.M.B.u.u.u.u.u.V.B.B.V.u.B.y.y.H.3 ",
": o.4.j.<.<.a.a.z.V.].M.r.x.z.k.u.u.u.u.u.u.b.l.g.a.+.% { J._ qXaXdXlXtXU.N ; y.u.u.u.b.l.k.a.<.a.a.j.l.V.V.B.x.x.k.z.u.y.o.P p ",
"u & o.z.g.a.<.a.s.C.}.wXC F | i.k.u.j.g.z.z.z.a.a.p.1 N U.tXiXxXL.eXhXyX}.{ = @.j.z.k.z.j.a.j.g.&.a.a.c.A.G.C.g.a.j.s.k.k.@.* |.",
"i s | R.k.k.z.z.R.s.`.aXkX0X_ E | j.<.a.&.a.z.z.O.2 + ] }.tXfXxXA 0XzXpXtX}.N V a.a.a.k.z.k.z.z.g.x.c.a.k.s.s.a.g.j.a.j.a.#.* z ",
"a =.*.*.s.W.C.H.).;.K.[.lXcXsXI.= L g.z.z.z.p.G M N q U.tXiXsXdXq L.hXsXyXtX[ = 0.k.z.z.s.T.W.Y.T.A.F.~.-.Q.T.R.R.a.a.a.<.O.o.p ",
"u B B 7.'.F.F.C.v.`.C.d.Z jXxXtXI.M J f.c.| B M [ q M P.rXpXxXeXX A lXfXuXtXJ.$ T v.C.v.`.F.C.F.F.F.v.C./.Z.V.G.A.B.u.g.R.c.o.p ",
"h ....p.g.c.R.<.<.R.s.g.7.qXlXsXyXU.M , Z E [ P.] + D }.W N ~ q   o M A N P.{ + U B.B.B.B.v.g.c.s.R.<.<.R.j.k.l.v.l.u.z.l.B.3.h ",
"h o.u.u.u.g.a.a.j.<.<.a.j.~.` wXpXtXU.S M E N W [ $ W rX[.E +       . a L.[.J.= H B.S.S.V.u.z.k.a.a.j.a.<.<.a.s.v.v.u.u.r.....f ",
"p ..y.u.u.u.z.u.u.k.z.M.A.A.5.< L.rXW U.W o S S q o N U.iXfXaX~   o 0XdXfXtX{ q H B.V.B.S.B.x.z.z.z.u.z.k.l.Z.A.Z.F.V.B.4.> 1 u ",
"p o.4.j.s.g.k.u.u.z.j.s.c.R.<.7.B _ rX_ I.W + # 8   = P.yXsXzXwX  a lXzXpXtXU.q J a.j.k.k.x.u.u.u.u.u.u.z.s.c.g.<.R.^.E.$.#.p.1 ",
"z = 4.x.k.k.a.s.z.a.s.u.B.v.a.j.%.B _ qXN S S + # 8 % I.yXsXgXaXq ` hXgXiXtXJ.& $.a.g.k.z.u.u.u.k.a.k.k.a.g.u.B.k.a.g.a.a.+.1 f ",
"*X* | 4.| +.~.W.;.~./.v.G.H.C.x.u.r.& S J.N M + w 8 X N [.pXgXxXeXkXzXsXtX{ = 4 V.S.V.u.s.s.g.Y.Q.~.;.W./.^.M.H.H.v.u.u.l.3.+ u ",
"p I I ; I 6.H.H.'.H.H.H.H.H.H.V.B.M.& $ M W # 9 8 + +   M rXgXzXxXhXgXiX[ + X G N.V.f.Y.Q.Q.;.!./.{.F.F.H.H.H.H.H.H.B.B.V.8.8., ",
"3 H.G.m.G.G.Z.^.C.S.B.M.v.E.G.H.V.r.& e ! 7 y e M I.' o 7 q L.uXgXsXwXN $ w 8 + e.Z./.'.A.G.F.S.F.C.^.A.V.l.C.^.v.H.G.B.u.y.X.a ",
"a ..u.S.k.<.<.>.a.k.g.<.a.&.c.l.u.r.& # ! OX^ M U.tXJ.# e 9 o a qX_ + # w Q w + e.S.H.V.u.B.V.j.<.<.<.j.z.a.<.a.a.l.u.u.V.3.5 * ",
"k U g.j.<.j.a.a.a.<.a.a.z.z.k.x.u.z.H o q r # M J.P.N # ! Q e 8 o o w Q oXoXt & 0.u.u.u.z.g.a.&.g.a.a.<.<.a.a.u.k.k.u.u.z.k.0.p ",
"Y u.u.l.v.B.x.u.z.g.z.z.z.u.u.j.j.a.<.H + + S q $ % o # 9 ! oX! w w Q oX+XoX8 V a.x.u.u.V.M.l.M.B.z.u.k.g.z.z.u.u.z.a.g.a.$.V z ",
"Y w.4.n.H.v.g.j.a.<.a.j.a.g.a.<.<.<.<.<.G = M N ; R & X w ! oX+XoX^ oX+XoXw o +.<.a.j.M.H.H.H.F.c.g.a.a.<.s.j.j.g.<.<.<.h.p.%.J ",
"d * = d.l.k.j.<.,.<.<.>.1.:.:.,.R.<.-.>.k.R $ ; n.B.| + 8 w e ^ oX( ( ^ w     C -.a.l.V.H.H.V.z.k.a.<.<.<.<.1.-.:.*.F V L | r.Y ",
"a #.F | z.u.z.j.a.<.>.*.Q./.;.~./.).'.Q.C.V.X.n.G.B.l.| + X o o o o o o & &   & K.v.V.V.S.H.V.B.u.k.a.<.<.1.-./.!.=.5.2.I I : O ",
"- #.i.i.j.z.u.u.l.v./.).H.H.F.H.H.H.H.H.H.S.B.B.V.V.B.t...1 +   + P I I 2.<   4 D.H.S.B.u.V.V.B.u.u.u.v.v./.'.H.H.F.H.{.H.F.3 b ",
"O G S.V.B.B.u.u.u.u.B.V.S.B.S.B.B.B.V.H.H.H.S.S.V.B.r.o...| ; o + R X.2.R & o 2 6.m.H.G.S.S.B.B.B.u.u.b.u.B.S.V.B.S.B.V.B.B.8.g ",
": ..3.k.s.s.k.k.u.u.B.u.u.u.l.x.u.u.b.B.B.B.V.V.v.g.@.| | | U U U ......| H 5 U X.3.B.V.V.B.c.s.g.k.k.u.B.B.u.u.u.x.u.u.u.w., b ",
"c s +.a.a.<.<.<.j.A.H.A.v.j.j.a.z.u.k.z.u.u.z.j.&.a.$.} L T X.2.2.X.| | | | ..| ..w.u.u.k.a.a.a.<.<.<.v.G.H.Z.c.j.j.j.u.u.w.5 i ",
"4Xu G w.u.k.g.k.s.c.M.c.g.j.k.j.g.k.<.a.a.j.k.g.k.u.z.i.4.@.@.X.| | | | | @.O.#.%.a.a.k.k.g.z.u.g.k.g.s.l.v.k.g.g.k.a.z.j.j.O.x ",
"n 3 I 3 | R.v.A./.;.,.Y.<.R.&.<.a.<.j.z.g.z.z.k.R.Y.R.s.V./.;.=.=.=.$.$.$.&.&.a.z.g.k.z.z.R.Y.R.R.M.Z.W.;.W.Y.<.a.<.<.a.<.p.1 0 ",
"l n.G.n.n.F.H.F.Z././.F.'.C.c.z.k.<.a.g.k.l.^./.'.).'.'.H.Z.'.Q.A.Z.Z.v.k.z.a.a.g.c.l.f./.'._._.'.H.Z.Z.!.C.Z.Z.v.k.z.j.<.%.+.g ",
"b Y u.c.c.C.^.R.<.^.c.z.B.V.M.u.z.c.v.Z.V.M.M.V.v.j.C.c.E.<.E.c.z.B.M.Z.l.u.k.v.Z.Z.V.M.V.C.j.v.v.^.<.R.f.k.l.M.N.B.u.k.g.| * 1X",
"=X0 ..u.k.j.&.<.a.<.<.&.a.s.c.x.u.u.u.u.B.S.V.u.u.z.g.a.<.a.<.<.<.a.a.f.k.u.u.u.u.B.V.V.B.u.z.k.a.<.a.<.>.<.a.a.s.c.u.u.u.o.: p ",
"l 6.M.x.z.k.g.z.z.a.g.v.Z.S.F.V.u.u.u.B.S.V.S.S.l.z.k.g.k.u.g.j.k.Z.Z.F.V.b.u.u.u.V.S.V.S.B.z.k.k.k.u.k.a.k.C.Z.G.G.B.u.u.0.4.s ",
"k H 4.k.k.x.u.u.u.u.k.c.v.E.E.C.v.v.g.j.k.z.z.l.u.u.u.u.u.u.u.z.j.v.f.R.v.C.v.c.j.g.z.z.z.l.u.u.u.u.u.u.z.g.v.c.R.^.C.v.v.| a XX",
",Xi T c.g.k.z.z.u.g.j.z.z.k.&.a.a.<.<.<.&.j.j.z.u.u.u.z.z.u.z.s.k.u.k.a.<.a.<.<.<.<.a.j.k.u.u.u.z.z.u.z.g.g.z.z.j.<.a.<.h.0.K  X",
"XXG D.{.C.R.Q.;.Y.W.T.c.S.G.c.z.u.z.k.v.M.b.u.z.z.z.a.T.;.Y.W.T.f.V.H.C.k.u.z.z.l.M.B.u.z.z.z.p.Y.W.,.Y.Q.E.l.G.A.c.u.a.%.4.G <X",
"g n.m.H.G.Z.H.'./.D.D.F.H.H.H.B.u.V.S.H.S.c.a.W.-.;.;.'.D./.'.H.F.H.{.H.V.u.V.S.H.H.v.s.W.;.;.K.~.H._.).H.F.F.{.{.S.g.,.>.J p 5X",
"b P < 3.l.B.S.V.H.H.V.S.Z.v.H.H.V.B.B.B.v.T.~.F._.Z.F.F.Z.Z.H.V.V.G.v.F.H.S.B.l.B.M.T.~._.F.'.F.F.F.Z.H.S.V.G.C.Z.F.R.*.1.>.s 2X",
",Xh 1 w.p.u.w.j.c.z.k.a.R.<.v.V.B.u.V.S.F.H.S.B.S.M.s.E.<.a.k.x.j.a.<.c.V.B.B.V.N.G.F.S.B.5.d.p.s.R.%.c.l.g.a.<.@.c.a.<.=.s i :X",
"7Xc 4.u.Y O.2 +.L @.+.@.k.%.i.o.u.r.R w.B.B.r.y.| | a.a.<.<.L +.} H g.%.k.w.V.5.4.B.B.r.$.#.: G a.L L <.+.%.$.p.2 ..o.o.x.G  X;X",
",X*XV Y g c x n s >.J * 4 1 w.1 Y 0.; - w.u.Y ..1 4.o.+.@.0.| 0 d 4 o.K Y B R , 4...r.q.V J * F o.s g K - p.H a 6 k 6 G q.F 2X7X",
">X>X X.X2X4X>X4Xb a * x  Xz ; c .Xf n j F Y x h O : p p p : = x ;Xi f =X-X-Xv v ; * Y 2 k XX1Xv ) 6X-X=Xu : - =X;X;X:X<Xv b ,X8X"
};
