/* XPM */
static char *c10a9eeae68d4318f319b6752f7ea9ddAKWN0hEb9EKlmINf[] = {
/* columns rows colors chars-per-pixel */
"64 64 234 2 ",
"   c #151B2D",
".  c #191E2F",
"X  c #181E30",
"o  c #1D2234",
"O  c #192F3C",
"+  c #1A353E",
"@  c #252A34",
"#  c #252936",
"$  c #23253C",
"%  c #2C2C3B",
"&  c #293839",
"*  c #343A39",
"=  c #34443C",
"-  c #3B433A",
";  c #3A4838",
":  c #3C4B3B",
">  c #3A4E3F",
",  c #454B3C",
"<  c #494A3D",
"1  c #44543B",
"2  c #4A5A3D",
"3  c #53573E",
"4  c #56673E",
"5  c #586B3F",
"6  c #1B3A45",
"7  c #2B2944",
"8  c #342E4C",
"9  c #273D43",
"0  c #383649",
"q  c #3C3655",
"w  c #423E42",
"e  c #473D59",
"r  c #4C3B66",
"t  c #513E69",
"y  c #184857",
"u  c #1B555E",
"i  c #284446",
"p  c #374A45",
"a  c #3A5449",
"s  c #234D57",
"d  c #255457",
"f  c #365755",
"g  c #195C67",
"h  c #155C70",
"j  c #295A66",
"k  c #375A64",
"l  c #116571",
"z  c #186877",
"x  c #286269",
"c  c #36636A",
"v  c #296875",
"b  c #366876",
"n  c #34717B",
"m  c #484646",
"M  c #455B43",
"N  c #475844",
"B  c #575649",
"V  c #544B51",
"C  c #565555",
"Z  c #60584F",
"A  c #695C55",
"S  c #4A6448",
"D  c #576943",
"F  c #5B7649",
"G  c #5A7951",
"H  c #646844",
"J  c #6B6C45",
"K  c #647B44",
"L  c #667947",
"P  c #757948",
"I  c #696157",
"U  c #776B5B",
"Y  c #6E7557",
"T  c #564468",
"R  c #535169",
"E  c #5A4675",
"W  c #67526B",
"Q  c #634A7A",
"!  c #43656E",
"~  c #6B6B70",
"^  c #83735E",
"/  c #826C61",
"(  c #887964",
")  c #947D68",
"_  c #5F8254",
"`  c #6D8344",
"'  c #66824B",
"]  c #6B844A",
"[  c #758C45",
"{  c #788849",
"}  c #7A9346",
"|  c #7B964A",
" . c #678854",
".. c #788551",
"X. c #6C945A",
"o. c #769857",
"O. c #7EA154",
"+. c #7AA35C",
"@. c #7FAB5F",
"#. c #6D956C",
"$. c #779963",
"%. c #739D6C",
"&. c #7C9D6B",
"*. c #6B9572",
"=. c #76A464",
"-. c #7CA464",
";. c #7CA961",
":. c #73A169",
">. c #87884C",
",. c #88964B",
"<. c #839C49",
"1. c #93974E",
"2. c #8E8D50",
"3. c #8A9457",
"4. c #989953",
"5. c #A19E53",
"6. c #86A34B",
"7. c #8AA44A",
"8. c #8DA94C",
"9. c #94A64E",
"0. c #92AD4C",
"q. c #95B24D",
"w. c #9BB54E",
"e. c #9BB94E",
"r. c #85A656",
"t. c #8BAB53",
"y. c #84AD5D",
"u. c #8AAE5B",
"i. c #9AA654",
"p. c #92AE5D",
"a. c #8DB256",
"s. c #87B05C",
"d. c #8AB059",
"f. c #94B553",
"g. c #9BB653",
"h. c #97B851",
"j. c #9BB850",
"k. c #93B25A",
"l. c #9CB25C",
"z. c #A0B94F",
"x. c #A7A855",
"c. c #B2AE58",
"v. c #A3B655",
"b. c #ACB656",
"n. c #A3B951",
"m. c #ABB954",
"M. c #A4B45C",
"N. c #ACB65B",
"B. c #B3BA56",
"V. c #B3B65C",
"C. c #B8B75A",
"Z. c #B5B959",
"A. c #BCBA5A",
"S. c #988468",
"D. c #919172",
"F. c #AA8D75",
"G. c #AA9674",
"H. c #B59A77",
"J. c #83A563",
"K. c #8BA566",
"L. c #83AA61",
"P. c #8CAD61",
"I. c #84A169",
"U. c #8BA369",
"Y. c #93A567",
"T. c #95A767",
"R. c #93AD61",
"E. c #9BAA64",
"W. c #A4AE63",
"Q. c #A8AC63",
"!. c #A5B061",
"~. c #ACB161",
"^. c #B2B361",
"/. c #BFA47A",
"(. c #C1BB5B",
"). c #C6A97D",
"_. c #C9B874",
"`. c #0D7588",
"'. c #1B7887",
"]. c #277886",
"[. c #327A8C",
"{. c #694C87",
"}. c #735488",
"|. c #745193",
" X c #795597",
".X c #845C83",
"XX c #865D96",
"oX c #8E6591",
"OX c #966796",
"+X c #A26D9A",
"@X c #A8719B",
"#X c #148A95",
"$X c #2A8796",
"%X c #328A98",
"&X c #1398A6",
"*X c #3297A8",
"=X c #19A5AC",
"-X c #2DADB7",
";X c #478798",
":X c #4295A4",
">X c #43ABB8",
",X c #05AFC2",
"<X c #38B4C6",
"1X c #51B1C2",
"2X c #68B2C7",
"3X c #34C4C7",
"4X c #53D4DE",
"5X c #7FD7EB",
"6X c #9A9792",
"7X c #B39190",
"8X c #B4AC91",
"9X c #AB9CA1",
"0X c #C9AB83",
"qX c #D5B583",
"wX c #D9BB88",
"eX c #C8B290",
"rX c #C5BC94",
"tX c #C2BCAA",
"yX c #DDC28D",
"uX c #DAC697",
"iX c #E2CC98",
"pX c #E5D39C",
"aX c #D3C8AC",
"sX c #E9D7A6",
"dX c #E8DEB7",
"fX c #F1E3AD",
"gX c #EFE1B0",
"hX c #F3E7BA",
"jX c #D5D3CF",
"kX c #EADFC8",
"lX c #F4E9C7",
"zX c #F3EDD8",
"xX c #F7F0D6",
"cX c #FFFDF2",
/* pixels */
",X,Xg s l '.>X4X'.& = u `.#X$Xc y `.`.h , p & : y y ].z '.j x <X$X* , i i p , 6 u n B N v y f n s : [.l z * 3 n <X&X#Xu u #X*X5X",
",X`.5 7.: = a s p S X.= J N p 4.J & G N x.P 5 <., P N K a  .M k i 2.c.o. .1.5.: G P A.x.- , x.P 1 8.M M & P C.N c g y K } f >X5X",
",Xh 1 q.<.8.<.2 0.9.p.2.(.>.2.A.P : o.4.c.x.q.<.,.m.r.h.0.f.K 1.2.>.(.N.V.(.>...V.c.m.n.8.P x.m.} 0.6.u.1.1.4.>.x.J S h.q.M 4X*X",
"g S M  .f.e.w.<.w.n.m.Z.A.v.Z.b.v.1.1.(.A.(.m.v.n.z.j.j.e.e.g.m.B.V.m.B.B.m.x.b.A.(.A.B.m.m.n.e.z.e.e.n.n.b.V.B.9.B X.r.5 1 n #X",
"y X.@.f.w.h.h.j.e.e.e.e.n.e.n.e.e.e.n.B.m.m.B.B.m.g.l.h.h.w.e.e.e.n.e.n.e.e.e.e.B.B.m.B.B.m.l.k.g.h.j.e.e.e.n.z.8.o.@.r.7.q.M '.",
"].p M O.d.y.;.;.k.m.A.m.g.f.a.d.h.e.j.e.e.e.e.f.y.;.;.;.;.u.v.A.B.n.f.f.d.h.e.e.e.e.e.e.h.u.@.;.;.;.y.l.Z.A.n.f.f.y.y.w.} 2 c #X",
"[.D <.8.j.a.y.d.u.l.m.M.k.d.a.d.a.h.y.y.d.a.f.d.d.h.f.y.d.y.k.m.M.k.d.a.a.d.e.y.y.a.d.f.d.y.h.h.y.d.u.a.M.m.l.a.d.f.y.f.q.> $X=X",
"1XS ` [ 6.[ 0.v.K.J.y.J.y.y.y.;.y.y.y.a.y.a.h.h.u.u.u.f.n.p.-.y.J.y.y.y.@.y.d.y.a.y.d.h.e.u.u.t.u.n.l.J.y.J.L.y.y.y.;.;.y.S ].&X",
"*Xp H H H >.i.A.V.U.U.W.E.R.u.d.d.;.d.f.h.h.p.R.E.Y.T.E.A.V.E.&.W.E.E.u.d.a.;.y.f.f.h.f.u.E.E.Y.E.V.A.~.&.E.E.E.P.d.a.y.;.,.J v ",
"N 4.i.l.l.V.M.R.P.M.M.n.B.B.m.e.h.u.k.M.M.M.M.B.M.l.V.N.l.L.l.l.n.m.B.B.n.e.d.p.M.M.M.l.N.N.l.N.N.M.P.R.l.v.m.B.B.n.e.f.P.x.2.c ",
"i , } h.f.u.;.;.;.;.;.y.a.u.k.e.e.g.z.z.n.m.n.e.h.f.a.y.;.;.;.;.y.d.d.d.h.e.j.e.z.n.m.n.e.j.f.a.y.;.;.;.;.@.d.d.u.f.e.h.k.] 9 %X",
"].= } j.f.a.y.a.f.@.y.k.l.M.V.n.e.e.e.n.B.Z.B.m.e.f.a.d.d.h.y.@.d.l.l.V.v.e.e.e.e.m.Z.B.B.n.h.f.d.y.f.a.;.y.k.l.N.N.e.e.e.e.K g ",
"a ,.k.h.e.e.e.e.e.h.h.l.N.l.l.N.v.v.f.h.g.e.n.n.e.e.e.e.e.e.j.h.l.M.M.k.N.m.v.g.f.h.g.e.n.n.e.e.e.e.e.e.h.f.M.M.l.M.b.v.l.j.6.d ",
"i 2 O.y.f.e.e.e.e.h.d.a.f.y.;.L.L.L.;.;.@.u.d.f.e.e.e.e.e.e.h.a.d.f.d.@.L.L.L.;.;.;.y.d.a.h.e.e.e.e.e.e.f.d.f.a.y.;.L.L.;.' 1 u ",
"j } e.e.h.u.J.J.u.J.L.h.m.m.u.f.f.a.d.a.f.h.j.e.e.e.f.L.-.u.J.J.f.n.B.k.O.6.r.a.a.f.h.h.e.e.e.h.u.J.y.u.J.u.e.m.v.y.h.a.d.F y &X",
"s 4 5 ] -.I.~.E.I.~.~.M.A.(.V.g.e.m.B.B.A.g.a.J.-.J.&.W.W.I.E.^.M.b.>.B 0 T p J x.A.m.h.L.-.J.&.Y.~.U.U.^.~.N.(.A.N.e.e.m.1.p g ",
"h ; >.4.M.W.A.A.A.A.B.A.A.N.A.B.n.n.m.m.l.J.I.W.Y.E.W.V.A.V.A.B.2.B V W .XXXt $ - 9.K.I.E.E.Y.~.Q.A.V.A.A.B.A.V.V.A.m.n.n.1.2., ",
"d <.n.A.m.M.l.L.k.m.e.k.P.L.N.B.n.e.n.B.N.V.V.m.A.B.M.M.P.u.v.` W oX+XOX+XOXXX{.8 - 4.V.m.B.A.v.M.R.L.v.n.h.k.L.u.B.m.n.n.v.H + ",
"h 4 f.v.d.;.;.;.@.d.y.;.d.y.d.j.e.n.m.n.m.m.e.e.v.k.;.;.;.;.K T OX@XOX+X@X@XXX X{.7 D n.e.g.l.y.;.;.;.y.d.@.;.d.y.a.e.e.i.i.<.: ",
"y K h.d.y.f.a.d.u.;.y.d.h.e.h.h.e.h.y.h.e.e.e.h.a.y.a.f.d.r.p .XOX.X+XOXW e r {.{.q - w.j.f.y.y.h.d.a.y.;.d.d.e.j.h.h.e.] M <.: ",
"K q.n.m.b.m.h.j.h.a.h.j.h.e.h.y.y.;.;.y.h.h.n.Z.m.m.b.g.j.} T OXT oXoX0   $ $ q |.T - h.B.B.m.b.v.h.j.f.a.h.h.j.e.a.;.y.X.= > s ",
"M [ v.A.N.k.y.y.;.;.;.y.;.;.-.;.;.;.=.;.y.f.m.A.A.B.l.u.y.D t W T oX8   7 e e E {.q : g.Z.(.A.M.d.y.@.;.;.@.y.;.;.-.;.;.X.X.f.K ",
"v N x.B.j.h.d.@.;.;.;.%.%.*.*.&.J.J.I.%.f.m.Z.A.A.g.h.f.y.G q E T E o i % 8 q e q % } B.A.A.n.h.h.y.;.;.;.=.%.%.*.*.-.] S S 8.D ",
"i x.(.B.m.e.e.f.d.L.-.&.W.V.U.~.^.^.C.W.N.n.n.m.Z.m.n.e.f.O.* t q r * 3.Y * o @ * P m.n.m.A.m.n.e.h.f.y.L.&.I.~.Q.Y.V.4.5.3 * j ",
"O J ,.n.n.e.e.e.n.v.N.V.A.B.A.A._._.A.(.A.A.n.n.m.n.z.e.7.4 * 8 7 8 X < B P 1.1.C.A.A.m.n.m.n.n.e.e.e.n.v.N.C.A.Z.A.Z.A.B.P J p ",
"= K D 9.n.n.g.e.e.e.e.n.m.e.m.z.3.rX_.A.Z.A.B.Z.m.n.v.9.= ~ aX~ R W ~ 6XD.* ` z.A.A.Z.Z.Z.B.n.v.n.e.e.e.e.e.m.n.n.m.e.n.w.w.A.3 ",
": | <.d.;.;.y.y.h.n.B.n.g.j.h.f.D aXkXQ.0.e.e.g.a.y.;.M m D.sXkXkXzXxXaXI 0 @ | e.e.e.z.g.f.y.;.y.y.d.g.m.m.n.j.j.f.h.e.w.} H i ",
"y @ } h.a.y.;.y.u.M.A.N.k.y.d.u.S 8XcX9X..f.f.y.y.a.r.N ).gXxXxXlXhXfXpXH.( % 2 d.h.f.h.d.y.d.a.@.y.y.k.N.Z.M.a.y.d.y.f.f. .& `.",
"u a ] L.f.f.h.h.y.u.k.u.d.d.a.y.N 8XlXzXeXu.f.h.f.h.K ( sXaXjXxXhXhXfXpXqXF.V & O.y.y.f.h.f.h.h.a.j.k.y.f.u.u.y.a.d.y.d.y.X.* l ",
"p $.#.#.u.I.M.A.W.&.&.T.J.L.y.y.S D.iXlXtXD f.u.K.$.* 8XsXB 6XlXfXfXsXyXqXF.A @ | f.q.f.u.K.I.J.K.N.V.T.%.U.K.L.L.y.y.y.@.| [ i ",
"y M N 3.~.V.V.M.l.!.M.m.V.B.v.e.| m 0XuXdXC ..N.V.4.B aX8X@ 9XcXgXiXwXqXqXH./ % K .., N x.V.M.V.V.V.l.M.E.N.m.Z.N.n.e.a.L.p.[ i ",
"g [ [ t.a.k.L.;.;.L.u.a.h.k.l.e.h.D U wXpXG.2 v.f.' C iXU   6XxXfXyXqXqXqX).) * = B A @ 9.l.a.k.u.L.;.;.L.d.f.g.l.g.e.h.g.n.,.g ",
"g [ e.e.e.a.y.y.d.;.;.y.d.k.M.j.e.<.m /.0XrXB ,.e.D @ m @   R 6XD.( ( H.0XG.A @ B S.* @ 9.g.h.f.y.y.d.y.;.;.y.u.l.l.e.e.0.[ [ d ",
"i [ w.e.e.e.h.e.e.f.h.v.b.N.N.m.n.e.4 U G.( D.3 w.; I V       . @ C D.0X).A % Z S.e t 0 i.n.j.h.h.h.e.h.f.g.N.N.N.V.m.n.<.> M y ",
"i [ <.d.u.a.f.e.e.h.d.u.k.L.;.R.R.u.X.m H.U rXB [ N rXuX0 o 6XtXrXuX0X) B Z ) ) W |.|.0 6.j.e.e.e.e.e.e.h.u.k.a.;.L.R.P.o.X.t.1 ",
"l * <.j.f.f.y.u.h.y.u.e.n.l.y.d.d.y.y.M U S.( S.1 - uXlX( 0 kXhXsXI U D.S.U ^ F.XX X|.0 7.e.e.e.f.u.f.f.y.a.e.n.f.y.a.y.y. .1 d ",
"#X& ` <.`  .T.I.&.T.E.l.Z.A.M.h.e.g.v.1.m G.m S.m $ D.fXeXC dXfXuXw ( U B S./.0XOXXX|.0 o.u.a.J.U.T.&.I.E.R.v.A.A.l.e.e.g.,.@ y ",
"i J J - J 2.A.A.^.A.A.A.A.A.A.m.n.m.B.B.D A A Z ( $ m uXgXzXhXfXyXw / C H.wXiXiXOX X|.0 $.U.&.Y.E.(.V.V.A.A.A.A.A.A.n.n.m.1.1., ",
"3 A.Z.c.Z.Z.N.R.M.B.n.v.l.P.Z.A.m.e.z.x., % U % 0 X o A uXlXhXuX( @ U I ).yXiXeXXX|.XXm i.Z.V.B.V.M.R.b.m.g.M.R.l.A.Z.n.e.w.{ p ",
"p [ e.B.f.;.;.=.y.f.a.;.y.@.k.g.e.n.m.B q % @ 7 r 7 7 8 C G.U *     ^ ) ).wXyX7XOX7X0XB 7.n.m.d.;.;.;.d.h.y.;.y.y.g.e.e.m.,.5 & ",
"j K a.d.;.d.y.y.y.;.y.y.h.h.f.h.e.g.f.2 $ $ 8 0 8 % q E 7 X   $ 8 o ^ F.).qX0X7XpXyX).m 6.a.y.y.a.y.y.;.;.y.y.e.f.f.e.e.h.f.6.i ",
"K e.e.g.l.n.j.e.h.a.h.h.h.e.e.d.d.y.;.O.* 7 $ @ U ( 7 E E 8 0 T Q 7 ^ / H.7XOX9XsXwXG.* i.m.g.v.n.h.e.f.a.h.h.e.e.h.y.a.y.o.M l ",
"K 8.<.x.A.l.a.d.y.;.y.d.y.a.y.;.;.;.;.;.F 2 * B qX).* 7 Q E E |.|.7 U V }.XXOX7XwXqXI D A.A.A.V.k.a.y.y.;.u.d.d.a.;.;.;.s.t.O.F ",
"s * * i.g.f.d.;.-.;.;.=.:.*.*.-.L.;.%.=.f.n.1.* B V %   8 Q {.{.{.7 V V {. X X7XqX( , i.A.A.m.h.f.y.;.;.;.;.:.%.*.#.S M G ' 0.K ",
"p X.S ] h.e.h.d.y.;.=.#.U.E.&.T.E.W.~.U.M.m.m.1.4 * o     o $ $ $ o @ V T |.oX0X( , 9.m.B.A.m.n.e.f.y.;.;.:.%.E.Y.$.1.>.J J ; + ",
"= X.r.r.d.h.e.e.g.l.E.W.A.A.V.A.A.A.A.A.A.B.z.n.m.,.@   @ 5 K K D @   o % r oX) < x.B.n.e.m.m.n.e.e.e.l.l.E.~.A.A.V.A.(.A.V.3 v ",
"O D b.m.n.n.e.e.e.e.n.m.B.n.B.n.n.n.m.A.A.A.B.B.m.q.& * | w.w.n.,.o     @ w 0 , x.A.A.Z.B.B.n.n.n.e.e.z.e.n.B.m.n.B.n.m.n.n.4.f ",
": [ ,.f.u.u.f.f.e.e.n.e.e.e.g.j.e.e.z.m.n.n.m.m.9.S o D | } [ } [ 1 & 1 2 @ * 6.n.n.n.m.m.n.k.u.a.f.f.e.n.n.e.e.e.j.e.e.e.8., v ",
"x p  .y.y.;.;.;.d.N.A.b.l.d.d.y.h.e.f.h.e.e.h.d.o.a & G G K { >.>.{ K ] ' D K <.a.e.e.e.f.y.y.y.;.;.;.l.Z.A.N.k.d.d.d.e.e.8.5 u ",
"<Xy D 8.e.f.a.f.u.k.v.k.a.d.f.d.a.f.;.y.y.d.f.a.t.[ K ' ` ' ' { ] ] ' ] ] ' ` K o.y.y.f.f.a.h.e.a.f.a.u.g.l.f.a.a.f.y.h.d.d.} z ",
"b 3 J 3 ] L.l.b.E.&.-.J.;.L.@.;.y.;.d.h.a.h.h.f.$. .G K { ..G G G G G K G G G ' 8.a.f.h.h.L.J.L.L.v.N.I.&.I.J.;.y.;.;.y.;.t.1 9 ",
"k x.Z.x.x.V.A.V.N.E.E.V.~.M.k.h.f.;.y.a.f.g.R.E.~.T.3.>.>.....Y ......] ] [  .o.u.k.g.p.E.~.W.W.~.A.N.N.Y.M.N.N.l.f.h.d.;.+. .f ",
"v K e.k.k.M.R.L.;.R.k.h.n.m.v.e.h.k.l.N.m.v.v.m.l.d.M.p.r.X.o.o.| ,.,.9.0.q.k.l.N.N.m.v.m.M.d.l.l.R.;.L.p.f.g.v.b.n.e.f.a.' & *X",
"$X9 [ e.f.d.@.;.y.;.;.@.y.u.k.j.e.e.e.e.n.B.m.e.e.h.a.y.;.y.;.;.;.y.y.p.f.e.e.e.e.n.m.m.n.e.h.f.y.;.y.;.=.;.y.y.u.k.e.e.e.} ; i ",
"k 2.v.j.h.f.f.h.h.y.a.l.N.B.V.m.e.e.e.n.B.m.B.B.g.h.f.a.f.e.a.d.f.N.N.V.m.z.e.e.e.m.B.m.B.n.h.f.f.f.e.f.y.f.v.N.Z.Z.n.e.e.6.<.a ",
"j F <.f.f.j.e.e.e.e.f.k.l.P.P.M.l.l.a.d.f.h.h.g.e.e.e.e.e.e.e.h.d.l.p.L.l.M.l.k.d.a.h.h.h.g.e.e.e.e.e.e.h.a.l.k.L.R.M.l.l.] p [.",
"-Xu K k.a.f.h.h.e.a.d.h.h.f.@.y.y.;.;.;.y.d.d.h.e.e.e.h.h.e.h.u.f.e.f.y.;.y.;.;.;.;.y.d.f.h.e.e.h.h.e.h.a.a.h.h.d.;.y.;.s.6.S '.",
"[.D C.(.M.L.U.&.J.I.K.k.B.Z.k.h.e.h.f.l.v.z.e.h.h.h.u.K.&.J.I.K.p.m.A.M.f.e.h.h.g.v.n.e.h.h.h.t.J.I.-.J.U.P.g.Z.b.k.e.y.O.<.D ;X",
"f x.c.A.Z.N.A.~.E.C.C.V.A.A.A.n.e.m.B.A.B.k.y.I.%.&.&.~.C.E.~.A.V.A.(.A.m.e.m.B.A.A.l.u.I.&.&.I.T.A.W.W.A.V.V.(.(.B.a.-.=.F i 1X",
"v H < ,.g.n.B.m.A.A.m.B.N.l.A.A.m.n.n.n.l.K.E.V.Q.N.V.V.N.N.A.m.m.Z.l.V.A.B.n.g.n.v.K.T.W.V.~.V.V.V.N.A.B.m.Z.M.N.V.L.#.:.=.a >X",
"-Xg 1 8.t.e.8.d.k.h.f.y.L.;.l.m.n.e.m.B.V.A.B.n.B.x.a.P.;.L.f.j.d.y.;.k.m.n.n.m.b.Z.V.B.n.,.i.t.u.L.+.k.g.a.y.+.o.k.y.-.#.a u *X",
"3Xx <.e.K | 2  .G X. . .f.O.r.} e.9.P 8.n.n.0.w.` ' s.@.;.;.G ' _ F a.O.f.8.m.1.<.n.n.0.o.X.: D y.G G ;. .+.o.t.2 [ } } j.D '.&X",
"-X#XM K f x z b a =.F * 4 1 8.1 K 6.- = 8.e.K ` 1 <.}  . .6.] 9 s 4 } S K N P , <.[ 0.7.M G & D } a f S = t.D p 6 j 6 D 7.S >X3X",
"=X=X'.].>X<X=X<Xv p & z '.l ; x ].d b h S K z g O : i i i ; * z &Xu d $X%X%Xc c ; & K 2 j [.:Xc ! 2X%X$Xy : = $X&X&X*X;Xc v -X4X"
};
