/* XPM */
static char *_d54a9693dae42709ee1c38ac69dc4aaPfh4jjT7MNgnCma5[] = {
/* columns rows colors chars-per-pixel */
"64 64 240 2 ",
"   c #231F06",
".  c #282A0F",
"X  c #312E03",
"o  c #3A3603",
"O  c #383818",
"+  c #331C24",
"@  c #192F3C",
"#  c #1A353E",
"$  c #2C2D29",
"%  c #26373A",
"&  c #2B3C3C",
"*  c #363D37",
"=  c #44392A",
"-  c #34443C",
";  c #3B4839",
":  c #3C4B3B",
">  c #384D3E",
",  c #535017",
"<  c #494A27",
"1  c #585626",
"2  c #484637",
"3  c #454A3B",
"4  c #564D38",
"5  c #44543B",
"6  c #495A3C",
"7  c #55573C",
"8  c #67572E",
"9  c #57693E",
"0  c #586B3F",
"q  c #6C642B",
"w  c #1B3A45",
"e  c #273D43",
"r  c #184857",
"t  c #1B555E",
"y  c #2A4244",
"u  c #274648",
"i  c #364B45",
"p  c #3A5449",
"a  c #234D57",
"s  c #255457",
"d  c #365755",
"f  c #0F5769",
"g  c #195C67",
"h  c #175E73",
"j  c #295A66",
"k  c #375A64",
"l  c #116571",
"z  c #186877",
"x  c #286269",
"c  c #36636A",
"v  c #296875",
"b  c #366876",
"n  c #34717B",
"m  c #435441",
"M  c #455B43",
"N  c #485B47",
"B  c #585944",
"V  c #585755",
"C  c #6C514C",
"Z  c #75574B",
"A  c #4A6449",
"S  c #586A43",
"D  c #5A7348",
"F  c #587951",
"G  c #646844",
"H  c #6B6C45",
"J  c #6C6B4F",
"K  c #667845",
"L  c #647B44",
"P  c #757847",
"I  c #777858",
"U  c #8A7739",
"Y  c #8D7952",
"T  c #A77956",
"R  c #9C7C6A",
"E  c #A47F67",
"W  c #5F8254",
"Q  c #69834A",
"!  c #758C45",
"~  c #768848",
"^  c #7A9346",
"/  c #7A9348",
"(  c #678954",
")  c #77835B",
"_  c #6B935A",
"`  c #6E975B",
"'  c #759857",
"]  c #7DA255",
"[  c #7AA45D",
"{  c #7FAB5F",
"}  c #6C8965",
"|  c #6D996D",
" . c #739A64",
".. c #749C6D",
"X. c #7C9D6B",
"o. c #6B9572",
"O. c #729870",
"+. c #76A465",
"@. c #7CA464",
"#. c #7CA962",
"$. c #73A169",
"%. c #988736",
"&. c #A89435",
"*. c #CABC39",
"=. c #87884B",
"-. c #918B4D",
";. c #88954B",
":. c #839C49",
">. c #92964F",
",. c #88875C",
"<. c #9B8357",
"1. c #889556",
"2. c #989952",
"3. c #B68F4C",
"4. c #A78A57",
"5. c #A29B54",
"6. c #86A34B",
"7. c #8AA449",
"8. c #8DA94C",
"9. c #95A44E",
"0. c #92AD4C",
"q. c #95B24D",
"w. c #9AB54E",
"e. c #9BB94E",
"r. c #85A856",
"t. c #8BAC53",
"y. c #83AD5D",
"u. c #8AAE5B",
"i. c #9AA655",
"p. c #92AE5D",
"a. c #8DB256",
"s. c #87B05B",
"d. c #8AB059",
"f. c #94B553",
"g. c #9AB653",
"h. c #97B851",
"j. c #94B25A",
"k. c #9CB25B",
"l. c #B4A748",
"z. c #B1AA4B",
"x. c #A0B94F",
"c. c #A5A756",
"v. c #ADAB56",
"b. c #BAAB58",
"n. c #A3B655",
"m. c #AAB555",
"M. c #A4B951",
"N. c #ABB954",
"B. c #A4B45C",
"V. c #ACB65B",
"C. c #A3BD5B",
"Z. c #ADB959",
"A. c #B5B556",
"S. c #B3BA56",
"D. c #B3B65D",
"F. c #BAB65B",
"G. c #B5B959",
"H. c #BCBA5A",
"J. c #879B6A",
"K. c #94956F",
"L. c #A8976B",
"P. c #83A563",
"I. c #8BA566",
"U. c #83AA61",
"Y. c #8BAC61",
"T. c #84A169",
"R. c #8BA36A",
"E. c #83AC68",
"W. c #95A767",
"Q. c #93AD61",
"!. c #9BAA64",
"~. c #91A569",
"^. c #9BA96B",
"/. c #97B563",
"(. c #8CB071",
"). c #93B178",
"_. c #A4AE63",
"`. c #A7AA66",
"'. c #B9AB69",
"]. c #ABB161",
"[. c #A5B863",
"{. c #B5BA66",
"}. c #A5A576",
"|. c #B0A273",
" X c #B5B776",
".X c #CAB24E",
"XX c #C8B755",
"oX c #C1BB5B",
"OX c #C3B56C",
"+X c #BFC27D",
"@X c #D3C854",
"#X c #E5D351",
"$X c #E6D753",
"%X c #EBE257",
"&X c #F4EC50",
"*X c #F4E859",
"=X c #D8D06D",
"-X c #E6DC6A",
";X c #E5D87C",
":X c #E9E665",
">X c #F5EA67",
",X c #F5ED70",
"<X c #09778B",
"1X c #107286",
"2X c #1B7887",
"3X c #277886",
"4X c #327A8C",
"5X c #138692",
"6X c #17939C",
"7X c #2A8796",
"8X c #358798",
"9X c #27959B",
"0X c #1398A6",
"qX c #3297A8",
"wX c #18A7AA",
"eX c #1DA0B1",
"rX c #2DADB7",
"tX c #478798",
"yX c #4295A4",
"uX c #43ABB8",
"iX c #05AFC2",
"pX c #3BAFC2",
"aX c #38B5C7",
"sX c #51B1C2",
"dX c #68B2C7",
"fX c #34C4C7",
"gX c #4FC8D3",
"hX c #57DFEA",
"jX c #7FD7EB",
"kX c #9E9D8B",
"lX c #B7B48F",
"zX c #BED09F",
"xX c #D3D793",
"cX c #E2D78A",
"vX c #EEEC8F",
"bX c #D4D4AE",
"nX c #F7F6B0",
"mX c #FFFACA",
"MX c #FFFEDA",
"NX c #FFFDE2",
/* pixels */
"iXiXg a l 2XuXhX2X& - t <X5X9Xc r <X1Xf 3 i % ; r r 3Xz 1Xj x aX7X* 3 y y i 3 w t n B N v r d n a ; 4Xl z * 7 n pX0X5Xt t 5XqXjX",
"iX<X0 7.: - p a i A ` - H N i 2.H % F N c.P 0 :.3 P m L p ( N k y -.v.' ( >.5.: F P H.c.; 3 c.P 5 8.m N & P A.m c g r L / d uXjX",
"iXh 5 q.:.8.:.6 0.9.p.-.oX=.-.H.P : ' 2.A.v.q.:.;.N.r.h.0.f.L >.-.=.oXV.D.oX=.~ D.v.N.M.8.P c.N.^ 0.6.u.>.2.2.=.v.H A h.q.N gXqX",
"f A M ( f.e.w.:.w.M.N.G.H.n.G.m.n.2.>.oXH.oXN.m.M.e.h.h.e.e.g.N.S.D.N.S.S.N.m.m.oXoXH.S.N.N.M.e.x.e.e.M.M.m.D.S.9.B _ r.0 5 n 6X",
"r _ { f.w.h.h.e.e.e.e.e.M.e.M.e.e.e.M.S.N.N.S.S.N.g.k.h.h.w.e.e.e.M.e.M.e.e.e.e.S.S.N.S.S.N.k.j.g.h.h.e.e.g.M.x.8.' { r.8.q.N 2X",
"3Xi M ] d.y.#.#.j.N.H.N.g.f.a.d.h.e.h.e.e.e.e.f.y.#.#.#.#.u.n.H.S.M.f.f.d.h.e.e.h.e.e.e.h.u.{ #.#.#.y.k.G.H.M.f.f.y.y.w.^ 6 c 6X",
"4XS :.8.h.a.y.d.u.k.N.B.j.d.a.d.a.h.y.y.d.a.f.d.d.h.f.y.d.y.j.N.B.j.d.a.a.d.e.y.y.a.d.f.d.y.h.h.y.d.u.a.B.N.k.a.d.f.y.f.q.> 7XeX",
"sXA Q ! 6.! 0.n.I.P.y.P.y.y.y.#.y.y.y.a.y.a.h.h.u.u.u.f.M.p.@.y.P.y.y.y.{ y.d.y.a.y.d.h.e.u.u.t.u.M.k.P.y.P.U.y.y.y.#.#.y.A 3X0X",
"qXi G G G =.i.H.D.R.R._.!.Q.u.d.d.#.d.f.h.h.p.Q.!.~.W.!.H.D.!.X._.!.!.u.d.a.#.y.f.f.h.f.u.!.!.~.!.D.H.].X.!.!.!.Y.d.a.y.#.1.H v ",
"N 2.i.k.k.D.B.Q.Y.B.B.M.S.S.N.e.h.u.j.B.B.B.B.S.B.k.D.V.k.U.k.k.M.N.S.S.M.e.d.p.B.B.B.k.Z.Z.k.V.V.B.Y.Q.k.n.N.S.S.M.e.f.u.v.-.c ",
"u 3 ^ h.f.u.#.#.#.#.#.y.a.u.j.e.e.g.x.x.M.N.M.e.h.f.a.y.#.#.#.#.y.d.d.d.h.e.h.e.x.M.N.M.e.h.f.a.y.#.#.#.#.{ d.d.u.f.e.h.j.Q e qX",
"3X- =.h.f.a.y.a.f.{ y.j.k.B.D.M.e.e.e.M.S.G.S.N.e.f.a.d.d.h.y.{ d.k.k.D.n.e.e.e.e.N.G.S.S.M.h.f.d.y.f.a.#.y.j.k.V.Z.e.e.e.e.L g ",
"p ;.j.h.e.e.e.e.e.h.h.k.V.k.k.Z.n.n.f.h.g.e.M.M.e.e.e.e.e.e.h.h.k.B.B.Q.m.N.n.g.f.h.g.e.M.M.e.e.e.e.e.e.h.f.B.B.k.B.Z.n.k.h.6.s ",
"y 6 ] y.f.e.e.e.e.h.d.a.f.y.#.U.U.U.#.#.{ u.d.f.e.e.e.e.e.e.h.a.d.f.d.#.U.U.U.#.#.#.y.d.a.h.e.e.e.e.e.e.f.d.f.a.y.#.Y.U.#.( 5 f ",
"j ^ e.e.h.u.P.P.u.P.U.h.N.N.u.f.f.a.d.a.f.h.h.e.e.e.f.U.@.u.P.P.f.M.S.j.d.h.a.a.a.f.h.h.e.e.e.h.u.P.y.u.P.u.e.N.n.y.h.a.d.D r 0X",
"a 9 0 Q @.J.].!.T.].].B.H.oXD.g.e.N.S.S.H.g.a.P.@.P.X._._.T.!.].B.G.oXH.n.e.M.N.S.H.N.h.U.@.P.X.~.].R.R.].].m.oXH.m.e.e.N.>.i g ",
"g ; =.2.B._.H.H.H.H.S.H.H.V.H.S.M.M.N.N.k.P.T._.~.!._.D.H.D.H.S.S.H.V.H.H.N.M.N.N.n.U.T.!.!.~.]._.H.F.H.H.S.H.D.F.H.N.M.M.>.-.3 ",
"s :.M.H.N.B.k.U.j.N.e.j.Y.U.Z.S.M.e.M.S.V.D.D.N.H.S.B.B.Y.u.n.e.f.p.#.k.S.N.e.M.N.D.].D.N.S.H.n.B.Q.U.n.M.h.j.U.u.S.N.M.M.m.G # ",
"h 9 f.n.d.#.#.#.{ d.y.#.d.y.d.h.e.M.N.M.N.N.e.e.n.j.#.#.#.#.y.d.#.y.y.y.h.e.x.N.M.N.S.M.e.g.k.y.#.#.#.y.d.{ #.d.y.a.e.e.i.i.:.; ",
"r L h.d.y.f.a.d.u.#.y.d.h.e.h.h.e.h.y.h.e.e.e.h.a.y.a.f.d.a.y.y.d.f.e.h.h.e.h.d.a.e.e.e.h.f.y.y.h.d.a.y.#.d.d.e.h.h.h.e.Q M :.: ",
"L q.M.N.Z.N.h.h.h.a.h.h.h.e.h.y.y.#.#.y.h.h.M.G.N.N.N.g.h.h.a.a.e.h.e.h.y.{ y.#.y.f.h.g.S.S.N.Z.n.h.h.f.a.h.h.h.e.a.#.y.` - > a ",
"M ! n.H.m.j.y.y.#.#.#.y.#.#.@.#.#.#.+.#.y.f.N.H.H.S.k.u.y.#.#.#.y.#.#.@.#.#.#.+.@.y.a.M.G.H.H.B.d.y.{ #.#.{ y.#.#.@.#.#.` ` f.L ",
"v N c.S.h.h.d.{ #.#.#.....O.o.X.P.P.J...f.N.G.H.H.g.e.f.y.#.#.#.+.| ..o...P.P.T...u.M.S.H.H.M.h.h.y.#.#.#.+.| ..o.o.@.Q A A 8.S ",
"y c.oXS.N.e.e.f.d.U.@.X._.D.R.].].D.F._.Z.M.M.N.G.N.M.e.h.a.U.P...W.D.!.!.D.].H._.V.N.M.N.H.N.M.e.h.f.y.U.X.T.]._.~.D.2.5.7 * j ",
"@ H ;.M.M.e.e.e.M.n.m.D.H.S.H.H.H.H.H.oXH.H.M.M.N.M.x.e.e.e.n.m.V.H.S.H.H.G.H.G.oXH.H.N.M.N.n.M.e.e.e.M.n.V.F.H.G.H.G.H.A.P H i ",
"- L D 9.M.M.g.e.e.e.e.M.N.e.N.x.e.g.M.H.G.H.S.H.N.M.n.M.e.e.e.e.M.N.e.M.M.e.M.^.}. XH.G.G.G.n.M.M.e.e.e.e.e.N.M.M.N.e.M.w.w.H.7 ",
"; / :.d.#.#.y.y.h.M.S.M.g.h.h.f.e.e.e.e.e.e.x.g.a.y.#.y.y.f.M.N.N.g.e.e.f.e.C.2 < O ~ C.g.f.y.#.y.y.d.g.N.N.M.h.h.f.h.e.w.^ G u ",
"r $ / h.a.y.#.y.u.B.H.m.j.y.d.u.f.e.d.a.h.h.h.y.y.a.d.#.y.y.k.G.Z.k.d.d.d.d.[.B lXxX=.1./.y.d.a.{ y.y.j.Z.G.B.a.y.d.y.f.f.( % <X",
"t p ~ U.f.f.h.h.y.u.j.u.d.d.a.y.d.d.#.y.{ y.f.h.f.h.h.f.g.u.y.j.u.d.s.a.u.).3 O  X{.xX1.) /.h.h.a.h.j.y.f.u.u.y.a.d.y.d.y._ & l ",
"i  .} } u.T.B.H._.X.X.W.P.U.y.y.y.#.a.h.h.h.h.u.I.T.T.Q.G.V.R...~.R.).(.(.J V K.1 c.+XK.2 K.T.T.I.Z.D.W...R.I.U.U.y.y.y.{ / ^ u ",
"r m m 1.].D.D.B.k._.B.N.D.D.n.e.h.U.u.j.k.k.!.V.D._.D.D.V.k.V._. XI < 7 < O B zXlXO 7 2 I  XB.D.D.D.k.B.!.m.N.G.Z.M.e.a.U.j.^ y ",
"g ~ ~ r.a.j.U.#.#.U.u.a.h.j.k.e.h.g.M.M.M.M.M.M.f.a.j.Y.#.#.E.)   7 kXbXbXkX8 0 lXkX$ K.M.k.a.j.u.U.#.#.Y.d.f.g.k.g.e.h.g.M.;.g ",
"g ^ e.e.e.a.y.y.d.#.#.y.d.j.B.h.e.e.e.M.N.G.S.M.e.h.a.y.y.a.).. , =XnXMXNXMXcX=.O J $ }.n.e.h.a.y.y.d.y.#.#.y.u.k.k.e.e.0.! ~ s ",
"u ! w.e.e.e.h.e.h.f.h.n.Z.Z.V.N.M.e.h.g.N.M.N.S.g.h.h.h.h.[.J < {.vXnXmXbXmXvX@X, . I C.S.M.h.h.h.h.e.h.f.g.m.Z.V.D.N.M.;.> m r ",
"u ^ :.d.u.f.a.e.e.h.d.u.j.U.#.Q.Q.u.U.y.y.a.f.h.e.e.C.^.J.< X }.`.=.,.}.lXnX,X%XF.1 I j.f.h.e.e.e.e.e.e.h.u.j.a.#.U.Q.Y.' ` t.5 ",
"l * :.h.f.f.u.u.h.y.u.e.M.k.y.d.d.y.y.y.d.a.f.e.e.C.) $ 7 P >.=.X < , q 5.;X>X$X.XU = /.h.e.e.e.f.u.f.f.y.a.e.M.f.y.a.y.y.( 5 s ",
"5X& Q :.Q ( W.T.X.W.!.k.G.H.B.h.e.g.n.N.S.M.h.u./.) B bXnXvX{.q   I  X=X@X#X%X#XXX4.4 C.u.u.a.P.R.W.X.T.!.Q.n.H.H.k.e.e.g.;.$ r ",
"u H H ; H -.H.H.].H.H.H.H.H.H.N.M.N.S.S.m.Y.@.~.J.B bXmXnXcXcX-.. . q z.:X>X>XXX.XL.4 (.R.R.X.~.!.oXD.D.H.H.H.H.H.H.M.M.N.2.2.3 ",
"7 H.G.v.G.G.V.Q.B.S.M.n.k.Y.G.H.N.e.e.N.k._.].{.< ,.nXnXvXXXb.OX1 1 < o z.@X@X.X4.R 2  XZ.G.D.S.D.B.Q.Z.N.g.B.Q.k.H.G.M.e.w.~ i ",
"i ~ w.S.f.#.#.+.y.f.a.#.y.{ j.g.e.M.N.N.G.S.M.C.4 }.vX:X:X@X&.q o lXY X z.l.%.4.E C B {.e.M.N.d.#.#.#.d.h.y.#.y.y.g.e.e.N.;.0 % ",
"j L a.d.#.d.y.y.y.#.y.y.h.h.f.h.e.g.f.e.e.e.e./.4 |.-X*X&X%XXXU q q X , -X.X3.T Z + K.e.h.a.y.{ a.y.y.#.#.y.y.e.f.f.e.e.h.f.6.u ",
"L e.e.g.k.M.h.e.h.a.h.h.h.e.e.d.d.y.#.a.e.e.g.{.4 L.$X%X&X$X&.l.XXF.%.A.,X@X3.T C + K.e.N.m.g.B.M.h.e.f.a.h.h.e.e.h.y.a.y.` M l ",
"L 8.:.c.H.k.a.d.y.#.y.d.y.a.y.#.#.#.#.#.y.f.N.H.Y Y XX$X&X&X*.-X>X*X*X>X*X#X3.T E 4 B B.H.H.H.D.j.a.y.y.#.u.d.d.a.#.#.#.s.t.] D ",
"a & * i.g.f.d.#.@.#.#.+.$.o.o.@.U.#...+.f.M.S.H.'., b.XX@X#X>X*X*X*X*X%X$X.X3.T R = 2 A.H.H.N.h.f.y.#.#.#.#.$...o.| A M F Q 0.L ",
"i _ A ~ h.e.h.d.y.#.+.O.R.!.X.W.!._.].R.B.N.N.H.{.< Y '.b.l..X@X#X.X$XXXXXb.T R Z + N.N.S.H.N.M.e.f.y.#.#.$.O.!.~. .>.=.H H ; # ",
"- _ r.r.d.h.e.e.g.k.!._.H.H.D.H.H.H.H.H.H.S.M.M.N.K.O I |.'.OXb.b.b.b.'.4.<.Y C + H.S.M.e.N.N.M.e.e.e.k.k.!.].H.H.D.H.oXH.D.7 v ",
"@ S A.N.M.M.e.e.e.e.M.N.S.M.S.M.M.M.N.H.H.H.S.S.N.M.K.* 2 Z Y 4.L.4.<.Z 8 H =.M.H.H.H.G.S.S.M.M.M.e.e.x.e.M.S.N.M.S.M.N.M.M.2.d ",
"; ! ;.f.u.u.f.f.e.e.M.e.e.e.g.h.e.e.x.M.M.M.N.N.k.d.y.Q.1.h.e.M.M.e.e.e.h.e.e.e.M.M.M.N.N.M.j.u.a.f.f.e.M.M.e.e.e.h.e.e.e.8.3 v ",
"x i ( U.y.#.#.#.d.Z.H.Z.k.d.d.y.h.e.f.h.e.e.h.d.{ y.y.#.#.y.B.H.G.B.d.a.y.a.e.h.f.e.e.e.f.y.y.y.#.#.#.k.G.H.m.j.d.d.d.e.e.8.0 t ",
"pXr D 8.e.f.a.f.u.j.n.j.a.d.f.d.a.f.#.y.y.d.f.a.f.e.h.a.h.u.u.n.k.f.d.a.a.d.h.y.#.y.y.f.f.a.h.e.a.f.a.u.g.k.f.a.a.f.y.h.d.d./ z ",
"b 7 H 7 ~ U.k.Z.!.X.@.P.#.U.{ #.y.#.d.h.a.h.h.f.U.P.U.u.N._.X.@.T.P.U.{ #.{ y.y.h.a.f.h.h.U.P.U.U.n.V.T.X.T.P.#.y.#.#.y.#.t.5 e ",
"k c.G.v.c.D.H.D.V.!.!.D.].B.j.h.f.#.y.a.f.g.Q.!.]._.].].H.V.].R.D.V.V.k.f.h.y.y.a.j.g.p.!.]._._.].H.V.V.~.B.V.V.k.f.h.d.#.[ ( d ",
"v L e.j.j.B.Q.U.#.Q.j.h.M.N.n.e.h.j.k.m.N.n.n.N.k.d.B.j.Y.#.Y.j.h.M.n.m.g.e.f.k.m.m.N.n.N.B.d.k.k.Q.#.U.p.f.g.M.m.M.e.f.a.( & qX",
"8Xe ! e.f.d.{ #.y.#.#.{ y.u.j.h.e.e.e.e.M.S.N.e.e.h.a.y.#.y.#.#.#.y.y.p.f.e.e.e.e.M.N.N.M.e.h.f.y.#.y.#.+.#.y.y.u.j.e.e.e.^ ; u ",
"k =.n.h.h.f.a.h.h.y.a.k.m.S.F.N.e.e.e.M.S.N.S.S.g.h.f.a.f.e.a.d.f.m.m.F.N.x.e.e.e.N.S.N.S.M.h.f.f.f.e.f.y.f.B.m.G.G.M.e.e.:.:.p ",
"j D :.f.f.h.e.e.e.e.f.j.k.Y.Y.B.k.k.a.d.f.h.h.g.e.e.e.e.e.e.e.h.d.k.p.U.k.B.k.j.d.a.h.h.h.g.e.e.e.e.e.e.h.a.k.j.U.Q.B.k.k.Q i 4X",
"rXt L j.a.f.h.h.e.a.d.h.h.f.{ y.y.#.#.#.{ s.d.h.e.e.e.h.h.e.h.u.f.e.f.y.#.y.#.#.#.#.y.d.f.h.e.e.h.h.e.h.a.a.h.h.d.#.y.#.s.6.A 2X",
"4XS A.oXB.U.R.X.P.T.I.j.S.G.j.h.e.h.f.k.n.e.e.h.h.h.u.I.X.P.T.I.p.N.H.B.f.e.h.h.g.n.M.e.h.h.h.t.P.T.@.P.R.Y.g.G.Z.j.e.y.] :.S tX",
"d c.v.H.G.m.H.].!.F.F.D.H.H.H.M.e.N.S.H.S.j.y.T...X.X.].F.!.].H.D.H.oXH.N.e.N.S.H.H.k.u.T.X.X.J.W.H._._.H.D.D.oXoXS.a.@. .D u sX",
"v G 3 ;.g.M.S.N.H.H.N.S.V./.H.H.N.M.M.M.k.I.W.D._.V.D.D.V.V.H.N.N.F.k.D.H.S.M.g.M.n.I.W._.D.].F.D.D.V.H.S.N.G.B.V.F.U.| $.+.p uX",
"rXg 5 8.a.e.8.d.j.h.f.y.U.#.k.N.M.e.N.S.D.H.S.M.S.n.u.Y.#.U.f.h.d.y.#.j.N.M.M.N.m.G.D.S.M.>.i.t.u.U.+.j.g.a.y.[ ' j.y.@. .p t 9X",
"fXx :.e.L / 6 ( F _ ( ( f.] r.^ e.0.P 8.M.M.0.w.Q Q d.y.#.#.F Q W D a.] f.8.N.>.:.M.M.0.' _ : S y.F F #.( [ ' 8.6 ! ! ^ h.S 2X6X",
"rX5XM L d x z b p +.F & 9 5 8.5 L 6.; - 8.e.L ! 5 :.^ ( _ 6.Q e a 9 ^ A L m P 3 :.! 0.7.M F % S / p d A - t.D i w j w S 7.A uXgX",
"wXwX2X3XuXaXeXaXv i & z 2Xl ; x 3Xs b h A L z g @ ; y u y ; & z 6Xt s 7X8X8Xc c ; % L 6 j 4XyXc c dX8X7Xr ; - 7X0XeXqXtXc v rXhX"
};
