/* XPM */
static char *_c7c805a54464419da0d046a717c63feThT3crVKRBW2EVAi[] = {
/* columns rows colors chars-per-pixel */
"64 64 234 2 ",
"   c #151B2D",
".  c #191E2F",
"X  c #181E30",
"o  c #1D2233",
"O  c #192F3C",
"+  c #1A353E",
"@  c #242835",
"#  c #252A35",
"$  c #23253C",
"%  c #2B2C3B",
"&  c #2A3839",
"*  c #353A3A",
"=  c #34443C",
"-  c #3A4639",
";  c #3C4B3B",
":  c #384D3E",
">  c #454B3C",
",  c #464A3C",
"<  c #44543B",
"1  c #49593D",
"2  c #53573E",
"3  c #56673E",
"4  c #5A6D3F",
"5  c #1B3A45",
"6  c #2B2944",
"7  c #342E4C",
"8  c #273D43",
"9  c #383649",
"0  c #3C3655",
"q  c #423E42",
"w  c #473D59",
"e  c #4C3B66",
"r  c #513E69",
"t  c #184857",
"y  c #1B555E",
"u  c #284547",
"i  c #364A44",
"p  c #3A5449",
"a  c #234D57",
"s  c #255457",
"d  c #365755",
"f  c #195C67",
"g  c #155C70",
"h  c #295A66",
"j  c #375A64",
"k  c #116571",
"l  c #186877",
"z  c #286269",
"x  c #36636A",
"c  c #296875",
"v  c #366876",
"b  c #34717B",
"n  c #474746",
"m  c #475745",
"M  c #455B43",
"N  c #575749",
"B  c #544B51",
"V  c #565554",
"C  c #60584F",
"Z  c #695C55",
"A  c #4A6348",
"S  c #566A44",
"D  c #5B7649",
"F  c #516B57",
"G  c #577552",
"H  c #5D7D51",
"J  c #646843",
"K  c #6B6C45",
"L  c #647B44",
"P  c #667947",
"I  c #757848",
"U  c #696157",
"Y  c #776B5B",
"T  c #637954",
"R  c #7F705D",
"E  c #564468",
"W  c #535169",
"Q  c #5A4675",
"!  c #68526B",
"~  c #634A7A",
"^  c #43656E",
"/  c #6B6B70",
"(  c #83735E",
")  c #826C61",
"_  c #887964",
"`  c #947D68",
"'  c #5F8254",
"]  c #6D8344",
"[  c #66824B",
"{  c #6B844A",
"}  c #748B45",
"|  c #778749",
" . c #7A9346",
".. c #7A954A",
"X. c #678954",
"o. c #798552",
"O. c #6C945A",
"+. c #769757",
"@. c #7BA359",
"#. c #7FAB5F",
"$. c #6E946B",
"%. c #749963",
"&. c #739C6C",
"*. c #7C9D6B",
"=. c #6B9572",
"-. c #76A464",
";. c #7CA464",
":. c #7CA961",
">. c #73A169",
",. c #87894C",
"<. c #87964B",
"1. c #839C49",
"2. c #93974F",
"3. c #8A9052",
"4. c #989853",
"5. c #A19E53",
"6. c #86A24C",
"7. c #8AA44A",
"8. c #8DA94C",
"9. c #95A64E",
"0. c #92AD4C",
"q. c #95B24D",
"w. c #9AB54E",
"e. c #9BB94E",
"r. c #85A655",
"t. c #8BAC53",
"y. c #84AD5D",
"u. c #8AAE5B",
"i. c #9BA755",
"p. c #92AE5D",
"a. c #8DB256",
"s. c #87B05C",
"d. c #8AB059",
"f. c #94B553",
"g. c #9BB653",
"h. c #97B851",
"j. c #9BB850",
"k. c #93B25A",
"l. c #9CB25C",
"z. c #A0B94F",
"x. c #A7A856",
"c. c #B2AE58",
"v. c #A3B655",
"b. c #AAB554",
"n. c #A3B951",
"m. c #ABB954",
"M. c #A4B45C",
"N. c #ACB65B",
"B. c #AEB858",
"V. c #B2BA56",
"C. c #B7B75A",
"Z. c #B3B65C",
"A. c #B5B959",
"S. c #BBBA5A",
"D. c #988468",
"F. c #919172",
"G. c #AA8D75",
"H. c #AA9674",
"J. c #B59A77",
"K. c #83A563",
"L. c #8AA565",
"P. c #83AA61",
"I. c #8CAD60",
"U. c #84A169",
"Y. c #8BA369",
"T. c #95A767",
"R. c #93AD61",
"E. c #9BAA64",
"W. c #92A568",
"Q. c #97B060",
"!. c #A4AE63",
"~. c #A8AC63",
"^. c #A5B061",
"/. c #ACB161",
"(. c #C1BB5B",
"). c #C6A97D",
"_. c #C5B872",
"`. c #0D7588",
"'. c #1B7887",
"]. c #277886",
"[. c #327A8C",
"{. c #694C87",
"}. c #735488",
"|. c #745193",
" X c #795597",
".X c #845C83",
"XX c #865D96",
"oX c #8E6591",
"OX c #966796",
"+X c #A26D9A",
"@X c #A8719B",
"#X c #148A95",
"$X c #2A8796",
"%X c #328A98",
"&X c #1398A6",
"*X c #3297A8",
"=X c #19A5AC",
"-X c #2DADB7",
";X c #478798",
":X c #4295A4",
">X c #43ABB8",
",X c #05AFC2",
"<X c #38B4C6",
"1X c #51B1C2",
"2X c #68B2C7",
"3X c #34C4C7",
"4X c #53D4DE",
"5X c #7FD7EB",
"6X c #9A9792",
"7X c #B39190",
"8X c #B4AC91",
"9X c #AB9CA1",
"0X c #C9AB83",
"qX c #D5B583",
"wX c #D9BB88",
"eX c #C9B290",
"rX c #C5BC94",
"tX c #C2BCAA",
"yX c #DDC28D",
"uX c #DAC697",
"iX c #E2CC98",
"pX c #E5D39C",
"aX c #D3C8AC",
"sX c #E9D7A6",
"dX c #E8DEB7",
"fX c #F1E3AD",
"gX c #EFE1B0",
"hX c #F3E7BA",
"jX c #D5D3CF",
"kX c #EADFC8",
"lX c #F4E9C7",
"zX c #F3EDD8",
"xX c #F7F0D6",
"cX c #FFFDF2",
/* pixels */
",X,Xf a k '.>X4X'.& = y `.#X$Xx t `.`.g > i & ; t t ].l '.h z <X$X* > u u i > 5 y b N m c t d b a ; [.k l * 2 b <X&X#Xy y #X*X5X",
",X`.4 7.; - p a i A O.= K N i 4.J & G M x.I 4 1.> I m L p X.M j u 3.c.+.X.2.5.; H I S.x.- > x.I < 8.M M & I C.m x f t L  .d >X5X",
",Xg < q.1.8.1.1 0.9.p.3.(.,.3.S.I ; +.4.c.x.q.1.<.m.r.h.0.f.L 2.3.,.(.N.Z.(.,.o.Z.c.m.n.8.I x.m. .0.6.u.2.4.4.,.x.J A h.q.M 4X*X",
"f A M X.f.e.w.1.w.n.m.A.S.v.A.m.v.9.2.(.S.(.m.b.n.e.j.j.e.e.g.m.V.Z.m.V.V.m.x.m.S.(.S.V.m.m.n.e.z.e.e.n.n.m.Z.V.9.N O.t.4 < b #X",
"t O.#.f.h.h.h.j.e.e.e.e.n.e.n.e.e.e.n.V.m.m.V.V.m.g.l.h.h.w.e.e.e.n.e.n.e.e.e.e.V.V.m.V.V.m.g.k.g.h.j.e.e.e.n.z.8.+.#.t.7.q.M '.",
"].i M @.d.y.:.:.k.m.S.m.g.f.a.d.h.e.j.w.e.e.e.f.y.:.:.:.:.u.v.S.V.n.f.f.d.h.e.e.e.e.e.e.h.u.#.:.:.:.y.g.A.S.n.f.f.y.y.w. .1 x #X",
"[.S 1.8.j.a.y.d.u.l.m.M.k.d.a.d.a.h.y.y.d.a.f.d.d.h.f.y.d.y.k.m.M.k.d.a.a.d.e.y.y.a.d.f.d.y.h.h.y.d.u.a.M.m.l.a.d.f.y.f.q.: $X=X",
"1XA ] } 6.} 0.v.L.K.y.K.y.y.y.:.y.y.y.a.y.a.h.h.u.u.u.f.n.p.;.y.K.y.y.y.#.y.d.y.a.y.d.h.e.u.u.t.u.n.l.K.y.K.P.y.y.y.:.:.y.A ].&X",
"*Xi J J J ,.i.S.Z.Y.Y.!.E.R.u.d.d.:.d.f.h.h.p.R.E.W.T.E.S.Z.E.*.!.E.E.u.d.a.:.y.f.f.h.f.u.E.E.W.E.Z.S./.*.E.E.E.I.d.a.y.:.<.K c ",
"m 4.i.l.l.Z.M.R.I.M.M.n.V.V.m.e.h.u.k.M.M.M.M.V.M.l.Z.N.l.P.l.l.n.m.V.V.n.e.d.p.M.M.M.l.B.B.l.N.N.M.I.R.l.v.m.V.V.n.e.f.I.x.3.x ",
"u >  .h.f.u.:.:.:.:.:.y.a.u.k.e.e.g.z.z.n.m.n.e.h.f.a.y.:.:.:.:.y.d.d.d.h.e.j.e.z.n.m.n.e.j.f.a.y.:.:.:.:.#.d.d.u.f.e.h.k.{ 8 %X",
"].= ,.j.f.a.y.a.f.#.y.k.l.M.Z.n.e.e.e.n.V.A.V.m.e.f.a.d.d.h.y.#.d.l.l.Z.v.e.e.e.e.m.A.V.V.n.h.f.d.y.f.a.:.y.k.l.N.B.e.e.e.e.L f ",
"p <.k.h.e.e.e.e.e.h.h.l.N.l.l.B.v.v.f.h.g.e.n.n.e.e.e.e.e.e.j.h.l.M.M.Q.N.m.v.g.f.h.g.e.n.n.e.e.e.e.e.e.h.f.M.M.l.M.B.v.g.j.6.s ",
"u 1 @.y.f.e.e.e.e.h.d.a.f.y.:.P.P.P.:.:.#.u.d.f.e.e.e.e.e.e.h.a.d.f.d.:.P.P.P.:.:.:.y.d.a.h.e.e.e.e.e.e.f.d.f.a.y.:.P.P.:.[ < y ",
"h  .e.e.h.u.K.K.u.K.P.h.m.m.u.f.f.a.d.a.f.h.j.e.e.0.6.+.;.u.K.K.f.n.V.k.d.h.a.a.a.f.h.h.e.e.e.h.u.K.y.u.K.u.e.m.v.y.h.a.d.D t &X",
"a 3 4 { ;.U./.E.U././.M.S.(.Z.g.e.m.V.V.S.g.a.%.A 9 E 9 m T T.Z.M.A.(.S.v.e.n.m.V.S.m.h.P.;.K.*.W./.Y.Y././.N.(.S.N.e.e.m.2.i f ",
"g - ,.4.M.!.S.S.S.S.V.S.S.N.S.V.n.n.m.m.l.K.%.* $ r XX.X! B N ,.V.S.N.S.S.m.n.m.m.v.P.U.E.E.W./.~.S.Z.S.S.V.S.Z.Z.S.m.n.n.2.3.> ",
"s 1.n.S.m.M.l.P.k.m.e.k.I.P.B.V.n.e.n.V.N.i.- 7 {.XXOX+XOX+XoX! { p.:.l.V.m.e.n.m.Z./.Z.m.V.S.v.M.R.P.v.n.h.k.P.u.V.m.n.n.b.J + ",
"g 3 f.v.d.:.:.:.#.d.y.:.d.y.d.j.e.n.m.n.m.3 6 {. XXX@X@X@XOX@XOXE H y.y.h.e.e.m.n.m.V.n.e.g.g.y.:.:.:.y.d.#.:.d.y.a.e.e.i.i.1.; ",
"t L h.d.y.f.a.d.u.:.y.d.h.e.h.h.e.h.y.h.w.- 0 {.{.e w ! OX+X.XOX.Xn 0.h.h.e.j.d.a.e.e.e.j.f.y.y.h.d.a.y.:.d.d.e.j.h.h.e.{ M 1.; ",
"L q.n.m.B.m.h.j.h.a.h.j.h.e.h.y.y.:.:.y.f.- E |.0 $ $   9 oXoXE OXE  .w.y.#.y.;.y.f.h.g.V.V.m.B.v.h.j.f.a.h.h.j.e.a.:.y.O.= ; a ",
"M } v.S.N.k.y.y.:.:.:.y.:.:.;.:.:.:.-.:.y.; 0 {.Q w w 6   7 oXE ! r S ;.:.:.:.-.;.y.a.n.A.S.S.M.d.y.#.:.:.#.y.:.:.;.:.:.O.O.f.L ",
"c m x.V.j.h.d.#.:.:.:.&.&.=.=.*.K.K.U.&.f.,.% 0 w 0 9 % - o Q E Q 0 F =.&.K.P.U.&.u.n.V.S.S.n.h.h.y.:.:.:.-.&.&.=.=.;.{ A A 8.S ",
"u x.(.V.m.e.e.f.d.P.;.*.!.Z.Y././.Z.C.!.B.n.] - @ o & L 6.& e 0 r 9 x.E.E.Z./.S.~.N.m.n.m.S.V.B.e.h.f.y.P.*.U./.~.W.Z.4.5.2 * h ",
"O J <.n.n.e.e.e.n.v.N.Z.S.V.S.S.S.S.S.(.S.S.n.w.<.<.L 1 > o 7 6 7 * J x.S.A.S.A.(.S.S.m.n.m._._.e.e.e.n.v.N.C.S.A.S.A.S.V.I J i ",
"= L J 9.n.n.g.e.e.e.e.n.m.e.m.z.e.g.n.S.A.S.V.A.m.] * F.6X/ ! W / aX/ = 8.g.n.n.S.S.A.S.S._.rX3.n.e.e.e.e.e.m.n.n.m.e.n.w.w.S.2 ",
"; ..1.a.:.:.y.y.h.n.V.n.g.j.h.f.e.e.e.e.e.e.z.g...@ 9 U tXzXzXkXkXsXF.n A j.e.e.e.e.g.0.~.kXaXM y.y.d.g.m.m.n.j.j.f.h.e.w. .J u ",
"t @  .h.a.y.:.y.u.M.S.N.k.y.d.u.f.e.d.a.h.h.h.y.M % _ J.pXfXhXlXzXxXgX).m r.e.a.d.h.k.o.9XcX8XA #.y.y.k.B.A.M.a.y.d.y.f.f.X.& `.",
"y p { P.f.f.h.h.y.u.k.u.d.d.a.y.d.d.:.y.#.y.f.8.& B G.qXiXfXhXhXxXjXaXsX_ D a.:.y.y.L.eXzXlX8X3 a.j.k.y.f.u.u.y.a.d.y.d.y.O.* k ",
"i %.$.$.u.U.M.S.!.*.*.T.K.P.y.y.y.:.a.h.f.q.h.+.@ Z G.qXwXsXfXfXlX6XN sX8X= @.y.h.f.S tXlXiXF.A L.B.Z.T.&.Y.L.P.P.y.y.y.:... .u ",
"t M m 3./.Z.Z.M.l.^.M.m.Z.Z.v.e.h.P.u.p.N > o.I % ) J.qXqXwXiXfXcX9X@ 8XaXN +.P.k.o.V dXyX).n 4.Z.Z.l.M.E.N.m.A.B.n.e.a.P.k. .u ",
"f } } r.a.k.P.:.:.P.u.a.h.k.l.e.h.g.n.9.@ Z N = * ` ).qXqXqXyXfXxX6X  R iXV { g.v.2 H.pXwXR A k.u.P.:.:.P.d.f.g.l.g.e.h.g.n.<.f ",
"f  .e.e.e.a.y.y.d.:.:.y.d.k.M.h.e.e.e.8.@ * D.N @ Z H.0XJ._ _ F.6XW   @ n @ 4 e. .V rX0XJ.n ..a.y.y.d.y.:.:.y.u.l.l.e.e.0.} } s ",
"u } w.e.e.e.h.e.e.f.h.v.B.B.N.m.n.e.j.8.9 e w D.C % Z ).0XF.B @ .     . B U - q.1 F._ H.R 3 j.h.h.h.e.h.f.g.N.B.N.Z.m.n.<.; < t ",
"u  .1.d.u.a.f.e.e.h.d.u.k.P.:.R.R.u.P.+.9 |.|.! ` ` C N ` 0XuXrXtX6Xo q uXrXm X.V rXY J.n 1.e.e.e.e.e.e.h.u.k.a.:.P.R.I.+.O.t.< ",
"k * 1.j.f.f.u.u.h.y.u.e.n.g.y.d.d.y.y.+.9 |. XXXG.( Y D.F.Y U sXhXkX9 _ lXuXi i D._ D.R 3 e.e.e.f.u.f.f.y.a.e.n.f.y.a.y.y.X.< s ",
"#X& ] 1.] X.T.U.*.T.E.l.A.S.M.h.e.g.v.9.9 |.XXOX0XJ.D.N Y _ 9 uXfXdXV eXfXF.$ n D.n H.n +.u.a.K.Y.T.*.U.E.R.v.S.S.l.e.e.g.<.@ t ",
"u K K - K 3.S.S./.S.S.S.S.S.S.m.n.m.V.i.9 |. XOXiXiXwXJ.V _ q yXfXhXzXgXuXn $ _ C Z Z M Y.Y.*.W.E.(.Z.Z.S.S.S.S.S.S.n.n.m.2.4.> ",
"2 S.A.c.A.A.N.R.M.V.n.v.l.I.A.S.m.e.e.9.n XX|.XXeXiXyX).U R @ _ uXhXlXuXZ o X 9 % Y % n x.A.Z.V.Z.M.R.B.m.g.M.R.l.S.A.n.e.w.| i ",
"i } w.V.f.:.:.-.y.f.a.:.y.:.k.g.e.n.m.9.N 0X7XOX7XyXwX0X` (     * Y H.V 7 6 6 e 6 @ % 0 N v.m.d.:.:.:.d.h.y.:.y.y.g.e.e.m.<.4 & ",
"h L a.d.:.d.y.y.y.:.y.y.h.h.f.j.e.g.f.6.n ).yXsX7X0XqX).G.( o 9 $ X X 6 Q 0 @ 7 0 7 $ $ 1 a.y.y.a.y.y.:.:.y.y.e.f.f.e.e.h.f.7.u ",
"L e.e.g.l.n.j.e.h.a.h.h.h.e.e.d.d.y.:.r.* G.wXpX9XOX7XJ.) ( 6 ~ E 0 7 Q Q % ( Y @ $ 6 & 9.m.g.v.n.h.e.f.a.h.h.e.e.h.y.a.y.+.M k ",
"L 8.1.x.S.l.a.d.y.:.y.d.y.a.y.:.:.:.:.:.S U qXwX7XOXXX}.n Y 6 |.|.Q Q ~ 6 * ).qXN & 1 ] S.S.S.Z.k.a.y.y.:.u.d.d.a.:.:.:.s.t.@.D ",
"a & * i.g.f.d.:.;.:.:.-.>.=.=.;.P.:.&.-.r.> _ qX7X X X{.B B 6 {.{.{.~ 7   % B N & X.g.V.S.S.m.h.f.y.:.:.:.:.>.&.=.$.A M H [ 0.L ",
"i O.A { h.e.h.d.y.:.-.=.Y.E.*.T.E.!./.Y.M.9.> _ 0XoX|.E B @ o $ $ $ o     o * N o.p.m.m.V.S.m.n.e.f.y.:.:.>.&.E.W.%.2.,.K K ; + ",
"= O.r.r.d.h.e.e.g.l.E.!.S.S.Z.S.S.S.S.S.S.V.7.> _ oXe % o   @ S T I K @   % 4.S.(.S.V.n.e.m.m.n.e.e.e.g.l.E./.S.S.Z.S.(.S.Z.2 c ",
"O S B.m.n.n.e.e.e.e.n.m.V.n.V.n.n.n.m.S.S.S.V.i.> 0 q @     o <.m.B.n.<.& & w.n.S.S.S.A.V.V.n.n.n.e.e.z.e.n.V.m.n.V.n.m.n.n.4.d ",
"; } <.f.u.u.f.f.e.e.n.e.e.e.g.j.e.e.z.m.n.n.m.m.6.& @ 1 > & < |  . ...7.S o 4 8.n.n.n.m.m.n.k.u.a.f.f.e.n.n.e.e.e.j.e.e.e.8.> c ",
"z i X.y.y.:.:.:.d.B.S.B.l.d.d.y.h.e.f.h.e.e.h.t.O.D S H H H | ,.,.| [ [ D & < 8.f.e.e.e.f.y.y.y.:.:.:.l.A.S.N.k.d.d.d.e.e.8.4 y ",
"<Xt S 8.e.f.a.f.u.k.v.k.a.d.f.d.a.f.:.y.y.d.f.6.{ } } [ { [ [ | { { [ { { L } @.:.y.y.f.f.a.h.e.a.f.a.u.g.g.f.a.a.f.y.h.d.d. .l ",
"v 2 J 2 { P.g.B.E.*.;.U.:.P.#.:.y.:.d.h.a.f.h.r.T T T L | o.G G T H H H H H X.@.h.a.f.h.h.P.K.P.P.v.N.U.*.U.K.:.y.:.:.y.:.r.< 8 ",
"j x.S.x.x.Z.S.Z.N.E.E.Z./.M.k.h.f.:.y.a.f.g.R.E.x.3.,.o.,.o.o.T o.o.o.{ } ..@.y.a.k.g.p.E./.!.!./.S.N.N.W.M.N.N.l.f.h.d.:.@.X.d ",
"c L e.k.k.M.R.P.:.R.k.h.n.m.v.e.h.k.l.N.m.v.v.m.l.u.l.u.+.X.+.+...<.9.i.w.e.f.l.N.N.m.v.m.M.d.l.l.R.:.P.p.f.g.v.b.n.e.f.a.[ & :X",
"$X8 } e.f.d.#.:.y.:.:.#.y.u.k.j.e.e.e.e.n.V.m.e.e.h.a.y.:.y.:.:.:.y.y.p.f.e.e.e.e.n.m.m.n.e.h.f.y.:.y.:.-.:.y.y.u.k.e.e.e. .; u ",
"j ,.v.j.h.f.f.h.h.y.a.g.N.V.Z.m.e.e.e.n.V.m.V.V.g.h.f.a.f.e.a.d.f.N.N.Z.m.z.e.e.e.m.V.m.V.n.h.f.f.f.e.f.y.f.M.N.A.A.n.e.e.6.1.p ",
"h D 1.f.f.j.e.e.e.e.f.k.l.I.I.M.l.l.a.d.f.h.h.g.e.e.e.e.e.e.e.h.d.l.p.P.l.M.l.k.d.a.h.h.h.g.e.e.e.e.e.e.h.a.l.k.P.R.M.l.k.{ i [.",
"-Xy L k.a.f.h.h.e.a.d.h.h.f.#.y.y.:.:.:.#.d.d.h.e.e.e.h.h.e.h.u.f.e.f.y.:.y.:.:.:.:.y.d.f.h.e.e.h.h.e.h.a.a.h.h.d.:.y.:.s.6.A '.",
"[.S C.(.M.P.Y.*.K.U.L.k.V.A.k.h.e.h.f.g.v.z.e.h.h.h.u.L.*.:.U.L.p.m.S.M.f.e.h.h.g.v.n.e.h.h.h.t.K.U.;.K.Y.I.g.A.B.k.e.y.@.1.S ;X",
"d x.c.S.A.N.S./.E.C.C.Z.S.S.S.n.e.m.V.S.V.k.y.U.&.*.*./.C.E./.S.Z.S.(.S.m.e.m.V.S.S.l.u.U.*.*.U.T.S.!.!.S.Z.Z.(.(.V.a.;.-.G u 1X",
"c J > <.g.n.V.m.S.S.m.V.N.l.S.S.m.n.n.n.l.L.T.Z.~.N.Z.Z.N.N.S.m.m.A.l.Z.S.V.n.g.n.v.L.T.!.Z./.Z.Z.Z.N.S.V.m.A.M.N.Z.P.=.>.-.p >X",
"-Xf < 8.t.e.8.d.k.h.f.y.P.:.g.m.n.e.m.V.Z.S.V.n.V.v.u.I.:.P.f.j.d.y.:.k.m.n.n.m.b.A.Z.V.n.2.i.t.u.P.-.k.g.a.y.#.+.k.y.;.%.p y *X",
"3Xz 1.e.L ..1 X.H O.X.X.f.@.r. .e.9.I 8.n.n.0.w.] [ d.#.:.:.H [ ' D a.@.f.8.m.2.1.n.n.0.+.O.; S y.H G :.X.@.+.8.1 }  . .j.S '.&X",
"-X#XM L d z l v p -.G * 3 < 8.< L 6.- = 8.e.L } < 1. .X.X.6.{ 8 a 3  .A L m I > 1.} 0.7.M G & S  .p d A = r.D i 5 h 5 S 7.A >X3X",
"=X=X'.].>X<X=X<Xc i & l '.k - z ].s v g A L l f O ; u u u ; * l &Xy s $X%X%Xx x - & L 1 h [.:Xx ^ 2X%X$Xt ; = $X&X&X*X;Xx c -X4X"
};
