/* XPM */
static char *f46f5d7bfd6a4f5690c6971fc16ea1e7XLf73NClJak1xGhP[] = {
/* columns rows colors chars-per-pixel */
"64 64 237 2 ",
"   c #161C2E",
".  c #181E2F",
"X  c #1A1E32",
"o  c #1D2234",
"O  c #1C2A3A",
"+  c #1A353E",
"@  c #282B37",
"#  c #24253B",
"$  c #302F3B",
"%  c #29373A",
"&  c #33333D",
"*  c #343C39",
"=  c #34443C",
"-  c #394638",
";  c #3C4B3B",
":  c #384D3E",
">  c #444B3B",
",  c #454A3D",
"<  c #43533B",
"1  c #48593C",
"2  c #53573E",
"3  c #56683E",
"4  c #586B3F",
"5  c #606D3F",
"6  c #1B3A45",
"7  c #2C2B43",
"8  c #332D4A",
"9  c #273D43",
"0  c #3B3744",
"q  c #34324C",
"w  c #3E3956",
"e  c #433B4A",
"r  c #453A59",
"t  c #483C62",
"y  c #523E6C",
"u  c #184857",
"i  c #1B555E",
"p  c #284547",
"a  c #374A45",
"s  c #3A5449",
"d  c #234D57",
"f  c #255457",
"g  c #365755",
"h  c #195C67",
"j  c #155C70",
"k  c #295A66",
"l  c #375A64",
"z  c #116571",
"x  c #186877",
"c  c #286269",
"v  c #36636A",
"b  c #296875",
"n  c #366876",
"m  c #34717B",
"M  c #484646",
"N  c #544C4A",
"B  c #475744",
"V  c #445B43",
"C  c #5A574B",
"Z  c #504556",
"A  c #585753",
"S  c #60584E",
"D  c #665954",
"F  c #4A6449",
"G  c #586945",
"H  c #5A7448",
"J  c #5A7A52",
"K  c #636943",
"L  c #6B6C45",
"P  c #667746",
"I  c #647B44",
"U  c #757949",
"Y  c #77675A",
"T  c #6A7753",
"R  c #4C4164",
"E  c #544369",
"W  c #594575",
"Q  c #6A4D75",
"!  c #43656E",
"~  c #75756B",
"^  c #83735E",
"/  c #806E64",
"(  c #887764",
")  c #967D6A",
"_  c #5F8254",
"`  c #698348",
"'  c #6B844B",
"]  c #758C45",
"[  c #778849",
"{  c #7A9346",
"}  c #7A9449",
"|  c #678853",
" . c #798554",
".. c #6C955A",
"X. c #759857",
"o. c #7EA256",
"O. c #7AA45C",
"+. c #7FAB5F",
"@. c #6D956C",
"#. c #739A64",
"$. c #739D6C",
"%. c #7C9D6B",
"&. c #6B9572",
"*. c #76A464",
"=. c #7CA464",
"-. c #7CA961",
";. c #73A169",
":. c #87884C",
">. c #86954B",
",. c #829C49",
"<. c #92974E",
"1. c #8F8E50",
"2. c #859555",
"3. c #989952",
"4. c #A19E53",
"5. c #86A34B",
"6. c #8AA34B",
"7. c #8DAA4C",
"8. c #95A44E",
"9. c #92AD4C",
"0. c #95B34D",
"q. c #9AB54E",
"w. c #9BB94E",
"e. c #85A655",
"r. c #8BAC53",
"t. c #84AD5D",
"y. c #8AAE5B",
"u. c #99A654",
"i. c #92AE5D",
"p. c #8DB256",
"a. c #87B05C",
"s. c #8AB059",
"d. c #94B553",
"f. c #9AB653",
"g. c #97B851",
"h. c #9BB850",
"j. c #93B25A",
"k. c #9CB25B",
"l. c #A0B94F",
"z. c #A7A856",
"x. c #B2AE57",
"c. c #A3B654",
"v. c #ABB655",
"b. c #A3B951",
"n. c #ABB954",
"m. c #A4B45C",
"M. c #ACB65B",
"N. c #AEB858",
"B. c #B2BA56",
"V. c #B3B55C",
"C. c #B8B75B",
"Z. c #B5B959",
"A. c #BBBA5A",
"S. c #9A846A",
"D. c #819E6B",
"F. c #908D74",
"G. c #9A9478",
"H. c #A1856F",
"J. c #A78B71",
"K. c #AE9B71",
"L. c #B69A77",
"P. c #83A563",
"I. c #8BA566",
"U. c #83AA61",
"Y. c #8CAC60",
"T. c #84A169",
"R. c #8BA369",
"E. c #95A767",
"W. c #93AD61",
"Q. c #9BAA64",
"!. c #92A568",
"~. c #97B060",
"^. c #A4AD63",
"/. c #A8AF62",
"(. c #A7B265",
"). c #ABB161",
"_. c #B6B664",
"`. c #BAA577",
"'. c #C1BB5B",
"]. c #C7A87D",
"[. c #0D7588",
"{. c #1B7887",
"}. c #277886",
"|. c #327A8C",
" X c #6A4C88",
".X c #72518B",
"XX c #714F91",
"oX c #765395",
"OX c #7B5597",
"+X c #845C85",
"@X c #865C98",
"#X c #8B6586",
"$X c #98708F",
"%X c #8C6297",
"&X c #986898",
"*X c #A36E99",
"=X c #A9719B",
"-X c #148A95",
";X c #2A8796",
":X c #328A98",
">X c #1398A6",
",X c #3297A8",
"<X c #19A5AC",
"1X c #2DADB7",
"2X c #478798",
"3X c #4295A4",
"4X c #43ABB8",
"5X c #05AFC2",
"6X c #38B4C6",
"7X c #51B1C2",
"8X c #68B2C7",
"9X c #34C4C7",
"0X c #53D4DE",
"qX c #7FD7EB",
"wX c #AE9191",
"eX c #A8A48B",
"rX c #BDB8AB",
"tX c #CAAB87",
"yX c #D3B483",
"uX c #D9BC88",
"iX c #C7AF93",
"pX c #CDB3A3",
"aX c #DDC28D",
"sX c #D9C694",
"dX c #E3CB97",
"fX c #E5D29C",
"gX c #CFC5AF",
"hX c #EBDAA6",
"jX c #EADCB6",
"kX c #F0E3AD",
"lX c #ECE1B3",
"zX c #F2E6BA",
"xX c #D7D4C3",
"cX c #F4EAC9",
"vX c #F4EDD4",
"bX c #FBF8EC",
"nX c #FDFBF5",
/* pixels */
"5X5Xh d z {.4X0X{.% = i [.-X;Xv u [.[.j , a % ; u u }.x {.k c 6X;X* > p p a > 6 i m C B b u g m d ; |.z x * 2 m 6X>X-Xi i -X,XqX",
"5X[.4 5.; - s d a F ..= L B a 3.L % J V z.U 5 ,.> U B I s | V l p 1.z.X.| 1.4.; J U A.z.- , z.U 1 7.V V % U C.B v h u I { g 4XqX",
"5Xj < 0.,.7.,.1 9.8.i.1.'.:.1.A.U ; X.3.x.z.0.,.>.n.e.g.9.d.P 1.1.:.'.M.V.'.:. .V.x.n.b.7.U z.n.{ 9.5.y.<.3.3.:.z.L F g.0.V 0X,X",
"h F V | d.w.q.,.q.b.n.Z.A.c.Z.v.c.<.<.'.A.'.n.v.b.w.h.h.w.w.f.n.B.V.n.B.B.n.z.n.A.'.A.B.n.n.b.w.l.w.w.b.b.v.V.B.8.C ..r.5 < m -X",
"u ..+.d.g.g.g.h.w.w.w.w.b.w.b.w.w.w.b.B.n.n.B.B.n.f.k.g.g.w.w.w.w.b.w.b.w.w.w.w.B.B.n.B.B.n.k.j.f.g.h.w.w.w.b.l.7.X.+.y.6.0.V {.",
"}.a V o.s.t.-.-.j.n.A.n.f.d.p.s.g.w.h.w.w.w.w.d.t.-.-.-.-.y.c.A.B.b.d.d.s.g.w.w.w.w.w.w.g.y.+.-.-.-.t.k.Z.A.b.d.d.t.t.0.{ 1 v -X",
"|.G ,.7.h.p.t.s.y.k.n.m.j.s.p.s.p.g.t.t.s.p.d.s.s.g.d.t.s.t.j.n.m.j.s.p.p.s.w.t.t.p.s.d.s.t.g.g.t.s.y.p.m.n.k.p.s.d.t.d.0.: ;X<X",
"7XF ` ] 5.] 9.c.I.P.t.P.t.t.t.-.t.t.t.p.t.p.g.g.y.y.y.d.b.i.=.t.P.t.t.t.+.t.s.t.p.t.s.g.w.y.y.r.y.b.k.P.t.P.U.t.t.t.-.-.t.F }.>X",
",Xa K K K :.u.A.V.R.R./.Q.W.y.s.s.-.s.d.g.g.i.W.Q.!.E.Q.A.V.Q.%./.Q.Q.y.s.p.-.t.d.d.g.d.y.Q.Q.!.Q.V.A.).%.Q.Q.Q.Y.s.p.t.-.2.L b ",
"B 3.u.k.k.V.m.W.Y.m.m.b.B.B.n.w.g.y.j.m.m.m.m.B.m.k.V.M.k.U.k.k.b.n.B.B.b.w.s.i.m.m.m.k.N.N.k.M.M.m.Y.W.k.c.n.B.B.b.w.d.Y.z.1.v ",
"p > { g.d.y.-.-.-.-.-.t.p.y.j.w.w.f.l.l.b.n.b.w.g.d.p.t.-.-.-.-.t.s.s.j.g.w.h.w.l.b.n.b.w.h.d.p.t.-.-.-.-.+.s.s.y.d.w.g.j.' 9 :X",
"}.= { h.d.p.t.p.d.+.t.j.k.m.V.b.w.w.w.b.B.Z.B.n.w.d.p.s.s.g.t.+.s.k.k.V.c.w.w.w.w.n.Z.B.B.b.g.d.s.t.d.p.-.t.j.k.M.N.w.w.w.w.I h ",
"s >.j.g.w.w.w.w.w.g.g.k.M.k.k.N.c.c.d.g.f.w.b.b.f.w.w.w.w.w.h.g.k.m.m.~.M.n.c.f.d.g.f.w.b.b.w.w.w.w.w.w.g.d.m.m.k.m.N.c.k.h.5.f ",
"p 1 o.t.d.w.w.w.w.d.s.p.d.t.-.U.U.U.-.-.+.y.s.d.h.w.w.w.w.w.g.p.s.d.s.-.U.U.U.-.-.-.t.s.p.g.w.w.w.w.w.w.d.s.d.p.t.-.U.U.-.| < i ",
"k { w.w.g.y.P.P.y.P.U.g.n.n.y.d.d.p.s.p.d.g.h.w.w.w.d.U.=.y.P.P.d.b.B.j.s.g.p.p.p.d.g.g.w.w.w.g.y.P.t.y.P.y.w.n.c.t.g.p.s.H u >X",
"d 3 4 ` =.D.).Q.T.).).m.A.'.V.f.w.n.B.B.A.f.p.P.=.P.%.^.^. . .1. .>.z.A.c.w.b.n.B.A.n.g.U.=.P.%.!.).R.R.).).M.'.A.M.w.w.n.<.a h ",
"h - :.3.m./.A.A.A.A.B.A.A.M.A.B.b.b.n.n.k.P.T./.!.Q./.z.2 $ e Z r e * L x.n.b.n.n.b.U.T.Q.Q.!.)./.A.V.A.A.B.A.V.V.A.n.b.b.<.1., ",
"f ,.b.A.n.m.k.U.j.n.w.j.Y.U.N.B.b.w.b.B.M.V.V.n.A.B.>.% q #X*X*XE Q #Xq L n.w.b.n.V.).V.n.B.A.c.m.W.U.c.b.g.j.U.y.B.n.b.b.v.K + ",
"j 3 d.c.s.-.-.-.+.s.t.-.s.t.s.h.w.b.n.b.n.n.w.w.c.i.= # .X@X&X=XQ 8 &X#X0 ] l.n.b.n.B.b.w.f.k.t.-.-.-.t.s.+.-.s.t.p.w.w.u.u.,.; ",
"u I d.s.+.d.p.s.y.-.t.s.g.w.g.g.w.g.t.g.w.w.w.g.p.X.$ t oX XOX*X*XQ %X=XQ < q.s.p.w.w.w.h.d.t.t.g.s.p.t.-.s.s.w.h.g.g.w.` V ,.; ",
"I 0.b.n.N.n.g.h.g.p.g.h.g.w.g.t.t.-.-.t.g.g.b.Z.n.u.& W W t oX&X=X&X@X=X.X$ X.-.t.d.g.f.B.B.n.N.c.g.h.d.p.g.g.h.w.p.-.t...= ; d ",
"V ] c.A.M.j.t.t.-.-.-.t.-.-.=.-.-.-.*.-.t.d.n.A.A.z.@ W t W oX@X*X*X%X=X&Xe ..*.=.t.p.b.Z.A.A.m.s.t.+.-.-.+.t.-.-.=.-.-.....d.I ",
"b B z.B.h.g.s.+.-.-.-.$.$.&.&.%.P.P.D.$.d.n.Z.A.A.9.- r t y oX&X=X*X*X=X+X& X.T.$.y.b.B.A.A.b.g.g.t.-.-.-.*.$.$.&.&.=.' F F 7.G ",
"p z.'.B.n.w.w.d.s.U.=.%./.V.R.).).V.C.^.N.b.b.n.Z.n.>.q t 8  X@X&X&X&X%Xr G ).A./.M.n.b.n.A.n.b.w.g.d.t.U.%.T.)./.!.V.3.4.2 * k ",
"O L >.b.b.w.w.w.b.c.M.V.A.B.A.A.A.A.A.'.A.A.b.b.n.b.w.1 8 q 7 y  X XW 8 % u.A.Z.'.A.A.n.b.n.b.b.w.w.w.b.c.M.C.A.Z.A.Z.A.B.U L a ",
"= I H 8.b.b.f.w.w.w.w.b.n.w.n.l.w.f.b.A.Z.A.B.A.n.b.6.> o q q # # # X < >.w.b.b.A.A.Z.Z.Z.B.b.c.b.w.w.w.w.w.n.b.b.n.w.b.q.q.A.2 ",
"; } ,.s.-.+.t.t.g.b.B.b.f.h.g.d.w.w.w.w.w.w.l.f.p.O.= 0 G.M 7 e Z G.N ; r.w.w.w.w.w.w.l.f.d.t.U.X.2.(._._.B.b.h.h.d.g.w.q.{ K p ",
"u @ { g.p.t.-.t.y.m.A.M.j.t.s.y.d.w.s.p.g.g.g.t.+.1 @ 0 rXxXeXgXcXpXA & 1 y.w.p.s.g.d.g.s.O.2.`.~ rXcXgXK.C.m.p.t.s.t.d.d.| % [.",
"i s ' U.d.d.g.g.t.y.j.y.s.s.p.t.s.s.-.t.-.t.d.g.} $ Y ( ~ eXxXbXcXtXH.Y @ X.d.U.t.t.t.r.` < ~ cXvXbXvX~ I y.y.t.p.s.t.s.t...* z ",
"a #.@.@.y.T.m.A./.%.%.E.P.U.t.t.t.-.p.g.g.g.g.y.G M ) ].aXhXkXkXhXuX].) M - V | g.p.` < A eXjXjXhXhXF.G $.R.I.U.U.t.t.t.-.} { p ",
"u V B 2.).V.V.m.k.^.m.n.V.V.c.w.g.U.y.j.k.k.Q.z.* Y L.yXfXvXbXbXcXaXyXJ.D # E M P B A F.sXfXuXyXS.( C u.Q.M.n.V.N.b.w.p.U.j.{ p ",
"h [ [ e.p.j.U.-.-.U.y.p.g.j.k.w.g.f.b.b.b.b.b.[ & ) ].yXdXlXbXbXzXhXuXL.) & r 7 N G.~ M A yXL.D * F ..-.U.s.d.f.k.f.w.g.f.b.>.h ",
"h { w.w.w.p.t.t.s.-.-.t.s.j.m.h.w.w.w.b.n.Z.v.> 0 ( L.uXdXhXvXvXzXhXyXL.S.M & S.S.D Y N & D , G X.t.s.t.-.-.t.y.k.k.w.w.9.] ] f ",
"p ] q.w.w.w.g.w.w.d.g.c.N.N.M.n.b.w.h.f.n.b.b.- S H.].dXcXbXnXnXzXhXuXyXH.0 @ M $ ( Y # # 5 6.g.g.g.w.g.d.f.M.N.M.V.n.b.>.; < u ",
"p { ,.s.y.p.d.w.w.g.s.y.j.U.-.W.W.y.U.t.t.p.p.= S H.].dXkXzXcXzXkXhXaX].) N   & ^ / t W a 0.w.w.w.w.w.w.g.y.j.p.-.U.W.Y.X...r.< ",
"z * ,.h.d.d.y.y.g.t.y.w.b.k.t.s.s.t.t.t.s.p.p.= N S.].aXzXvXcXhXfXaX`.) N N ^ J.(  XoX XM 0.w.w.d.y.d.d.t.p.w.b.d.t.p.t.t.| < f ",
"-X% ` ,.` | E.T.%.E.Q.k.Z.A.m.g.w.b.c.n.B.b.0.- & S.].uXjXbXnXcXfXsXM F.G.~ D ( wXOXOX Xa e.p.P.R.E.%.T.Q.W.c.A.A.k.w.w.f.>.@ u ",
"p L L - L 1.A.A.).A.A.A.A.A.A.n.b.n.B.B.c.U.=.G e ) ) L.fXzXbXvXkXsX& S.N Y L.uXiX%XOX Xa D.%.!.Q.'.V.V.A.A.A.A.A.A.b.b.n.3.3.> ",
"2 A.Z.x.Z.Z.M.W.m.B.b.c.k.Y.Z.A.n.w.f.n.k.Q.).<.@ D ) L.yXaXhXhXfXL.$ S.C yXuXfXpX%XoX XM V.V.B.V.m.W.N.n.f.m.W.k.A.Z.b.w.q.[ a ",
"a [ q.B.d.-.-.*.t.d.p.-.t.+.j.f.w.b.n.n.Z.B.b.P   o D H.].dXhXdXdXS.@ ( Y yXaXfXwXOXOX#XB c.n.s.-.-.-.s.g.t.-.t.t.f.w.w.n.>.4 % ",
"k I p.s.-.s.t.t.t.-.t.t.g.g.d.h.w.f.d.w.w.w.7.% # # o e Y ( ( ( ( M o S.S.yXuXuXwXwXtX`.B r.t.t.p.t.t.-.-.t.t.w.d.d.w.w.g.d.5.p ",
"I w.w.f.k.b.h.w.g.p.g.g.g.w.w.s.s.t.-.p.w.w.P   # q q 7 o o o o o 7 o S.J.yXtXwXiXhXaXK., c.f.c.b.g.w.d.p.g.g.w.w.g.t.p.t.X.V z ",
"I 7.,.z.A.k.p.s.t.-.t.s.t.p.t.-.-.-.-.-.t.d.2   # r R t W E t t E W # S.Y wX$X&XpXdXuX^ 2 A.A.V.j.p.t.t.-.y.s.s.p.-.-.-.a.r.o.H ",
"d * * u.f.d.s.-.=.-.-.*.;.&.&.=.U.-.$.*.d.b.K   # R W W oXoXXXXXoX X# Y e oX@X%XwXuX].M <.A.n.g.d.t.-.-.-.-.;.$.&.@.F V J ` 9.I ",
"a ..F ' g.w.g.s.t.-.*.@.R.Q.%.E.Q.^.).R.m.n.<.@ # w R W oXoXoXoXOXXX7 N Z XXoX%XtX].C K v.A.n.b.w.d.t.-.-.;.$.Q.!.#.1.:.L L ; + ",
"= ..e.e.s.g.w.w.f.k.Q.^.A.A.V.A.A.A.A.A.A.B.b.3   7 r W XXoXoXoXXXQ w # M y XX$X].C K c.w.n.n.b.w.w.w.k.k.Q.).A.A.V.A.'.A.V.2 b ",
"+ G N.n.b.b.w.w.w.w.b.n.B.b.B.b.b.b.n.A.A.A.B.z.- o q w t W E t r q # * - $ y #XS L C.Z.B.B.b.b.b.w.w.l.w.b.B.n.b.B.b.n.b.b.3.g ",
"; ] >.d.y.y.d.d.w.w.b.w.w.w.f.h.w.w.w.b.b.b.n.n.6.= . o o o * ; *     = } B 0 7 G c.b.n.n.b.j.y.p.d.d.w.b.b.w.w.w.h.w.w.w.7.> b ",
"c s | t.t.-.-.-.s.N.A.N.k.s.s.t.g.w.d.g.w.w.g.s.+.X.;     ; >.z.u.>   @ o.X.- 3 p.w.w.w.d.t.t.t.-.-.-.k.Z.A.M.j.s.s.s.w.w.7.4 i ",
"6Xu G 7.w.d.p.d.y.j.c.j.p.s.d.s.p.d.-.t.t.s.r.} ] { 3   @ H ' [ [ B   < e.s.7.+.-.t.t.d.d.p.g.w.p.d.p.y.f.k.d.p.p.d.t.g.s.s.{ x ",
"n 2 L 2 ' U.k.N.Q.%.=.P.-.U.+.-.t.-.s.g.p.r.] ' J G * o - U J J J = @ ; J +.t.t.g.p.d.g.g.U.P.U.U.c.M.T.%.T.P.-.t.-.-.t.-.r.< 9 ",
"l z.Z.z.z.V.A.V.M.Q.Q.V.).m.j.g.d.-.t.p.d.5.T  . .T T U U  . .T  .U U ' ' 7.t.t.p.j.f.i.Q.)././.).A.M.M.!.m.M.M.k.d.g.s.-.O.| g ",
"b I w.j.j.m.W.U.-.W.j.g.b.n.c.w.g.j.k.M.n.f.>.[ ' ' [ ' T J | ' ' [ [ [ ,.0.d.k.M.M.n.c.n.m.s.k.k.W.-.U.i.d.f.c.v.b.w.d.p.' % 3X",
";X9 ] w.d.s.+.-.t.-.-.+.t.y.j.h.w.w.w.w.b.B.b.7.,.{ ' | J | J J | | X.e.d.w.w.w.w.b.n.n.b.w.g.d.t.-.t.-.*.-.t.t.y.j.w.w.w.{ ; p ",
"l :.c.h.g.d.p.g.g.t.p.k.M.B.V.n.w.w.w.b.B.n.B.B.f.d.r.e.r.9.e.o.d.c.M.V.n.l.w.w.w.n.B.n.B.b.g.d.d.d.w.d.t.d.c.M.Z.Z.b.w.w.5.,.s ",
"k H ,.d.d.h.w.w.w.w.d.j.k.Y.Y.m.k.k.p.s.d.g.g.f.w.w.w.w.w.w.w.g.s.k.i.U.k.m.k.j.s.p.g.g.g.f.w.w.w.w.w.w.g.p.k.j.U.W.m.k.j.' a |.",
"1Xi T j.p.d.g.g.w.p.s.g.g.d.+.t.t.-.-.-.t.s.p.g.w.w.w.g.g.w.g.y.d.w.d.t.-.t.-.-.-.-.t.s.d.g.w.w.g.g.w.g.p.p.g.g.s.-.t.-.a.5.F {.",
"|.G C.'.m.U.R.%.P.T.I.j.B.Z.j.g.w.g.d.k.c.l.w.g.g.g.y.R.%.P.T.I.i.n.A.m.d.w.g.g.f.c.b.w.g.g.g.r.P.T.=.P.R.Y.f.Z.N.j.w.t.O.,.G 2X",
"g z.x.A.Z.M.A.).Q.C.C.V.A.A.A.b.w.n.B.A.B.j.t.T.$.%.%.).C.Q.).A.V.A.'.A.n.w.n.B.A.A.k.y.T.%.%.D.E.A./.^.A.V.V.'.'.B.p.=.*.H p 7X",
"b K , >.f.b.B.n.A.A.n.B.M.k.A.A.n.b.b.b.k.I.E.V./.M.V.V.M.M.A.n.n.Z.k.V.A.B.b.f.b.c.I.E./.V.).V.V.V.M.A.B.n.Z.m.M.V.U.@.;.*.s 4X",
"1Xi < 7.p.w.7.s.j.g.d.t.U.-.k.n.b.w.n.B.V.A.B.b.B.c.y.Y.-.U.d.h.s.t.-.j.n.b.b.n.v.Z.V.B.b.<.u.r.y.U.O.j.f.p.t.O.X.j.t.=.#.s i ,X",
"9Xc ,.w.I } 1 | J ..| | d.o.e.{ w.9.U 7.b.b.9.0.` ` a.+.-.-.J | _ H p.o.d.7.n.1.,.b.b.9.X...; G t.J J -.| O.X.r.1 ] { { h.G {.>X",
"1X-XV I g c x n s *.H * 3 < 7.< I 5.- = 7.w.I ] < ,.{ | | 5.' 9 d 3 { F I B U > ,.] 9.5.V J % G { s g F = r.H a 6 k 6 G 5.F 4X9X",
"<X<X{.}.4X6X<X6Xb a % x {.z - c }.f n j F I x h O ; p p p ; * x >Xi f ;X:X:Xv v - % I 1 k |.3Xv ! 8X:X;Xu ; = ;X>X>X,X2Xv b 1X0X"
};
