/* XPM */
static char *_d6ee838437a40a6816142e83303042dTshmxHgPOKfzxxx1[] = {
/* columns rows colors chars-per-pixel */
"64 64 255 2 ",
"   c #077D8D",
".  c #17848C",
"X  c #028C96",
"o  c #038C9C",
"O  c #0C8D9C",
"+  c #098996",
"@  c #128C9B",
"#  c #1A8C9B",
"$  c #188896",
"%  c #019296",
"&  c #02939D",
"*  c #0C939C",
"=  c #029A9D",
"-  c #0C989B",
";  c #13929D",
":  c #19989E",
">  c #008B8E",
",  c #248C98",
"<  c #20929D",
"1  c #098DA3",
"2  c #188DA2",
"3  c #0395A4",
"4  c #0B95A3",
"5  c #029CA4",
"6  c #0B9AA4",
"7  c #0394AA",
"8  c #0B95AA",
"9  c #039CAB",
"0  c #0C9CAB",
"q  c #1394A3",
"w  c #1B95A4",
"e  c #149BA4",
"r  c #1B9AA5",
"t  c #1396AA",
"y  c #1D95AC",
"u  c #139CAB",
"i  c #1A9CAC",
"p  c #039EB3",
"a  c #0C9DB0",
"s  c #049DBA",
"d  c #139DB2",
"f  c #1C9DB2",
"g  c #1A9FBD",
"h  c #0D8FB3",
"j  c #258DA4",
"k  c #2394A4",
"l  c #239BA4",
"z  c #2295AA",
"x  c #239CAC",
"c  c #2A9BAC",
"v  c #2B93A7",
"b  c #3599AC",
"n  c #239DB2",
"m  c #2B9AB5",
"M  c #359DB5",
"N  c #01A2A4",
"B  c #02A3AB",
"V  c #0BA3AC",
"C  c #02AAAC",
"Z  c #0BA7AA",
"A  c #14A3AC",
"S  c #1BA3AD",
"D  c #13AAAD",
"F  c #18A6A9",
"G  c #02B2AE",
"H  c #03A4B3",
"J  c #0CA4B3",
"K  c #03ABB3",
"L  c #0BABB4",
"P  c #02A4BB",
"I  c #0BA5BA",
"U  c #03ACBC",
"Y  c #0BACBC",
"T  c #14A3B3",
"R  c #1BA4B3",
"E  c #13ABB3",
"W  c #1BABB3",
"Q  c #13A4BA",
"!  c #1AA5BA",
"~  c #14ACBB",
"^  c #1BABBB",
"/  c #03B2B5",
"(  c #02B2BC",
")  c #0CB3BC",
"_  c #04BABC",
"`  c #0BB5B6",
"'  c #13B2B6",
"]  c #14B3BB",
"[  c #1BB2BA",
"{  c #17B8BA",
"}  c #24A3AC",
"|  c #2BA3AD",
" . c #25A8AC",
".. c #38A5AD",
"X. c #23A4B3",
"o. c #2AA4B3",
"O. c #23ABB5",
"+. c #2CABB4",
"@. c #23A6B9",
"#. c #2CA5BA",
"$. c #25ADBB",
"%. c #2AABBB",
"&. c #34A3B3",
"*. c #32ABB6",
"=. c #3AABB6",
"-. c #35A6BA",
";. c #33ACBC",
":. c #3BACBD",
">. c #3AA5B9",
",. c #23B3BD",
"<. c #2CB3BD",
"1. c #2CBBBD",
"2. c #26B4B8",
"3. c #37B5BD",
"4. c #12A39E",
"5. c #45A8BA",
"6. c #48B5BE",
"7. c #409DAF",
"8. c #1DC0BD",
"9. c #2AC1BE",
"0. c #03ADC3",
"q. c #0CACC2",
"w. c #09AAC6",
"e. c #12ACC2",
"r. c #19AAC4",
"t. c #02B3C2",
"y. c #09B7C8",
"u. c #13B4C2",
"i. c #1BB2C3",
"p. c #16B8C8",
"a. c #09B7D0",
"s. c #2BADC2",
"d. c #25ACC2",
"f. c #33ADC2",
"g. c #3AADC3",
"h. c #3BAAC8",
"j. c #25B4C3",
"k. c #2BB5C3",
"l. c #23BBC5",
"z. c #2BBBC4",
"x. c #24BCCA",
"c. c #2DBBCA",
"v. c #26B6C9",
"b. c #33B4C3",
"n. c #3AB4C4",
"m. c #34BBC5",
"M. c #3BBBC5",
"N. c #35B5CA",
"B. c #3BB5CA",
"V. c #34BCCC",
"C. c #3CBBCB",
"Z. c #35BCD1",
"A. c #3CBDD2",
"S. c #2ABBD4",
"D. c #41ACC3",
"F. c #49ACC7",
"G. c #43B4C4",
"H. c #43BAC4",
"J. c #43B4CA",
"K. c #43BBCC",
"L. c #4BBCCC",
"P. c #4BB5C7",
"I. c #57B7C9",
"U. c #44BDD3",
"Y. c #4BBCD3",
"T. c #45B7D2",
"R. c #55BBD5",
"E. c #52ACC5",
"W. c #63B9D0",
"Q. c #14C3C9",
"!. c #2BC2CC",
"~. c #28C3C7",
"^. c #34C2CC",
"/. c #3CC3CC",
"(. c #37C4C9",
"). c #2CC7D5",
"_. c #3DC3D3",
"`. c #3CCBD4",
"'. c #3DCBDA",
"]. c #36C7D6",
"[. c #3AD2DA",
"{. c #2DD0D7",
"}. c #3DD2E3",
"|. c #43C2CC",
" X c #4BC4CB",
".X c #48C7CC",
"XX c #55C5CE",
"oX c #44C4D4",
"OX c #4BC4D4",
"+X c #43CCD4",
"@X c #4DCAD4",
"#X c #43C5DA",
"$X c #4CC5DA",
"%X c #44CDDB",
"&X c #4CCBDC",
"*X c #53C5D4",
"=X c #5CC5D4",
"-X c #53CCD4",
";X c #5AC5DD",
":X c #52CCDC",
">X c #5CCBDC",
",X c #57C7D8",
"<X c #44D2DB",
"1X c #4CD4DC",
"2X c #47D5D7",
"3X c #53D2DE",
"4X c #5BD3DC",
"5X c #55D7DA",
"6X c #49D1CF",
"7X c #66C8DA",
"8X c #65D2DB",
"9X c #72CBDD",
"0X c #4ACEE2",
"qX c #53CDE2",
"wX c #5CCBE3",
"eX c #5EC7E4",
"rX c #45D4E2",
"tX c #4DD4E2",
"yX c #4CDAE4",
"uX c #48DAE7",
"iX c #53D4E3",
"pX c #5BD4E4",
"aX c #54DBE4",
"sX c #5BDCE5",
"dX c #54D5EA",
"fX c #5CD5EA",
"gX c #53DBEA",
"hX c #5BDCEB",
"jX c #5BDAF2",
"kX c #64CAE4",
"lX c #62D4E4",
"zX c #64D5EA",
"xX c #63DDED",
"cX c #69D9E7",
"vX c #78D8EA",
"bX c #62DBF1",
"nX c #6CD9F3",
"mX c #74DCF6",
"MX c #4EE3E9",
"NX c #5AE3ED",
"BX c #56E5EA",
"VX c #5BE8F6",
"CX c #42E2F0",
"ZX c #63E3EE",
"AX c #6AE4EB",
"SX c #76E4EE",
"DX c #64E5F4",
"FX c #6AE2F3",
"GX c #68EAF9",
"HX c #75E6F7",
"JX c #6BF3FC",
"KX c #78F5FD",
"LX c #83E8F9",
"PX c #89F3FE",
"IX c #80DAF2",
/* pixels */
"t.a.H 3 - O.3XNXi.H P y.B 6 1.1Xp q.I 9 0 T ,./.r ;.;.r 2 K.g._.{.5 ) ` 5 L V A : H.cXb b . ..5.$ f.&X4 ^ W y wXB.4 A V 6 r b vX",
"0.H Y l.S |.ZX$.J p.u.p l.A (.%XJ e.e.J 8 6 W k.DXsX:Xx w n.OXiX!.) B L L 5 ,.X + *XvX.., 8XSX..j z tXl.T R @.;.fXi X & e +.I.vX",
"a.q.9 0 X.3./.$.~ I I Q ~ z.sX+.^ a V ^ c.%XyXtXX.O.3Xn.;.-.OX&X_.E [ V ~ ,.m.@XH.SX=X7X=X8X..XXb L.aXZ N ] W X.qXqXC.S S 3XAX| ",
"p p.~ c.@X3.X.$.T Q ^ Z.4 C. X*X$.T ,.%XyXrX^.A 4 * M.C.*.o.L.K.#Xu R R k.#X%.xXHXcX. P.SX=X. 8X8XcXaX[ L Z 4 X.iXhXNXJXyX%XsXw ",
"J v.dXGX%X(.%Xm.u ^ 3 d B.>X. -X.X+X2X`.k.W 0 4 c.A S @X-XlX,X=.B.oXi #XdXaXn.*.:.=X..# , 8X4X-X.XS /.VX_.<.m.#XA W ' [.[ 6 n.$ ",
"v.jXfXn.S O.`.oXV.$.c.%.nXzX&.XX X5X+X2.T T ~ i.9 3 4 iXsXAXL.< x &X&XqXoXiX#.o.c cXlXb < -X-X| F  .1.%X%XiXiXiX6 E N L Z W OXk ",
"B.jXz.4 X.i 4 E ^.#XKXbX$XK.SX7Xl 6X/.W ,.~ 3 3 p J 8 j.m.*.| $ @ n hXb.@.b.@ +.lX=X5.=X8X4Xl $ 3.AX3.e 1.<X<.$.m.W & W W S <.S ",
"fXn.6 W $.A Z Z [ <Xf.-.x n.zXj : 5X`.4 9 9 9 p.q.q.p Q _.<.n.l X.f V._.gXi S q L.$ b SX=.H.@X X,X X:  .O.m.O.R _.dXm.4 e V.`.u ",
"OXM.q R B K Z Z A <X4 %.-.L.%.i e /.z.& L P 0.w.a.P e.7 ].m.<.S R 3 MX].& T S S :XL.>X&.k # |.*.l =.: + /.`.A S t C.fXy x +XA z.",
"OXC.+ 0 B B 5 5 [ ^.^.S :Xw d.3 A ^.^.9 Y q.0.0.w.0.p.7 v.R m.A Z B !.L ' & 6 rX&Xn.lXG.z # 3.@X} -X3.*XxXw e S R S &XX.i oX/.yX",
"*XiX0 L p.K K / B m.n.n.^.8 a a T ,.'.~ Y q.w.0.P w.q.I }.T k.W L ) ~.5 Z B ^.+XO } c c k z 3Xm.+X5XH.*XcXj w q T u rX$.q qXsXK.",
"=.pXE H p.U t.K & _.;.:XT L 9 e.~ Q uXi.I e.I q.Y e.7 v.uXR $.$.L ~.~.B B E [.k.r w K.n.n.FXhXaX~.F o.z wXwXC.].j.i.gX#X%.&XoX4 ",
"# iXk.9 t.U y.H R oX3Xm.^ 9 0.0.~ J uXc.T Q T ^ j.T 0 %XW S _.O.A rXV V ] V A rX&XpXOXxXoXi m.^.6 X @.@.#XrX].}.uXZ.:XHXFX#X[ Z ",
"$ 3XtXI t.t.p.I N.oX:XX.R p a.0.Y 0 '.c.^ A A S A e /.GX* b.DXX.O.rXA A 3 T j.NX%.x n.o.S R D ^.E V R _.v.J ] u.i.R 2 g.U.i % N ",
", G.yXI P 0.w.I _.K.-.n 8 q.t.t.I 0 k.m./.<.<. . .3.5X4X|. X-X3.C.C.X.O.u _.%XN.C.fXOXi X.S z.5 K N 8 Z.d d Y ) Y ~ u s.b.S E C ",
"c ;.yX~ P 0.Y e.dXJ.M x u Y t.P Q i %.oXNX2X6X3.5XKX@X: HXn.O 2X:Xg.@ o.gXyXW u @._.aXR %.u [ ] B N ).].o c.9 Y ) H d %XC.& Z N ",
"! ! VX~ Y K H i.GXwXD.2 i A j.D } &.8X,Xr 1.1.m.|.3.+.&.wXx L E 3XM b ;XNX[ & u.9 5 ].0Xc x j.N K K !.v.0 J H B H Q 1 qXU.4 N ` ",
"r.d rXJ Y ( K l.$XD.P.lX|.% <.|.4X>XvXb e 2.BXaXO.i ; -.g.X.K N /.*X5.PX$.B ) 5 K B J N.J.Y.$.= ] B ^ V.^ 3 H Y J 6 n qXfX%X,.N ",
"Q 8 ].a Y K K x.B.v D.,X/.2.aX/.3.4X7Xv + `.BXMXm.+XO.O :Xi B ) W pX7X,XW 9 p.5 9 Y 5 i.:XfX$.E [ 6 6 <XVX'.x.9 ^ u B.;.n.+X(.D ",
"T d #X^ ~ K K x.U.j J.g.b.BXGXW F OX>X>.; %XW W W <X'.m.KXB.V N - M.HX;.T V J J 5 ] 5 L V.hXk.R * m.m.1X1X^.'.R R %.oXr ; +./.e ",
"c.j.#X$.~ L L ,.qX2 kX$X^.yXc.D W R nXM b./.4 0 & B ~ VXB.&X!.5 6 A aXhX3 E d ! E L N N E %XC.q L.SXOXb.$.,.1XC.#.:XiXC.C.|.sX} ",
"%X^.C.S A ' L D $X# ;Xf.j.!.0 J Z o :XJ.B.#X4 ^ L N B !.i f._.,.5 6 W %XyXm.N.%.R B / C 5 k.&X:.HXvX+.r W ,.+X|.C.xXoXm.m.m.HXxX",
"^./.C.S 6 ~ E A OXG.J.+ V ] V V K V g.kXf.k.o 3 L ` p.B &Xx <.,.Z Z = 4 KXqXY.Y.$.B Q./ B 6 OXkXF.P.o.6 6 & R oXC.OXu & & & n.FX",
"W `.iXm.A W W O.lXHXY.t ~ 9 9 J K 9 f.R.U.t v.9 H 5 K B b.y C.z.W = W A m.pXF.mX&XQ ( C ] X -.R.E.F.%.0 B Z R C.#XV.8 J i.^ o N.",
"E W |.oX+XD 2.+Xo.FXOX6 H H H L ) 3 #.nX#Xd i.J U K C K $.x X.1X1.= X A n.M v D.&Xc.L K L u &.7XM wXR J B 9 T V.dX0 H Y U u.~ Q ",
"N 5 b.oX<.<XNX/.w zXoX0 K K P ) L J f.$XA.3 I Y K t./ N @.i O.1X`.1.W O.L.v M v $XN.] Z ' A v vXJ.GXrX9 p.u.3 ! rXa p H p P p 7 ",
"K L R _.`.yXz.S @ :X_.J U U Y u.B !.n.n j.I Y U U y.( B #XC.C.1X .NX`.JXG.j >.;XGXhX^.V D A z kXY.Z.VXi.H i.~ ^ rXa 9 Y 0.0.P P ",
"B B 3 %.#X+XW R ; &XV.L ( ( U Y ~ z.#.o.^ u.U U U ( U I GXpXm.z.@X|.e +.>Xb wX&Xo N.tX%X,.S :.L.f o VXuXT T ^ $.VXd.a i.p.0.P P ",
"( 9 Q 8 4 z.yXO.i oXv.J ( ( 0.L z.O.o.$XE K N y.( U B ^ bXU.0 4 -X*X} -XPXHXdX6 E u n xXGXVXJX%.e R V.+XS r X.C.B.b.%.! J I t.U ",
"a.U i.8 8 0 c.<.} C.^ H ( t.y.J O..XlX:X= ( K ( U U J v.U.;.9 V | cX3.|.$ zXW ' L 4 x >X<.6 +X<.6 O.r 3.l &.OXH.# *XwXf.t ~ Q.t.",
"U P p d d.8 0 `.n N.^ L ( t.y.I  .AXPX+.5 y._ / U q.~ Z.#.f.E ~ l =.AX} -.$XL C N 0 G.*X<.W W 1.% F 3.cXXXP.8X=.6.SXLXkXJ.d K C ",
"y.0.q.i.o T j.k.f N.j.~ ( U ( J 1.4XcX; { G C t.U ~ T N.w b.A & } O DXx n.m.% K 5 V.nX-.u ,.- (.(.aX4X>XvX5.G.lX-X;X7XLXFXW B ` ",
"t.U U e.~ a ! N.U.oX&XT L L K ' 2X} OXR L C _ C [ t A.C.C.3X;.i 3 T A.B.B.i V V d GXU.q 4 A ; 3XyX~.& o.D.>.A.a 7 g m h.VX[.% 8.",
"0.P U ) Y J ! s.bXf.C.%.W Z = 8.GXe :X6 { _ _ _ 0 %.OXoX<XsXL.o.I H f U.fXi 0 u qXjXs.d Q 6 k xX^.9 V R L.T.! I p.w.h s.0 BX~.= ",
"U t.( ( U L Q R &Xo.K.OX} e W VX+X} lXr E = _ / ^ #XN.X.,.^.C.<.K U 1 C.pX@ O.%XjXN.a 9 ~ A n.xXd.0 ^ R pX$X9 Y y.p g g T `./.A ",
"( t.t./ U ) I 0 qX$XpXzX*.| @XsX*.| cXo.[ { ` N '.JXs.e V E ^.<XK Y t #.OXw <.GX#Xu 0 9 L j.pXOX8 e.3 e bXb.N B 9 9 g 1 R $.M.} ",
"t.t.t./ ( ) L 8 dX:X>.R.=X=XSX=.# < cXn.e l.9 )._.GXR R E Z l.uXp.B u } @X*.F aX$.3 ~ L L z.3Xo.8 r.7 t xX/.B C K ` u t o &XpXc ",
"t.t.t./ ( ( L 0 #X;.  b 7XR.vXv < :.c OXX.A ^.gXs.qX1 R B 5 J ).{.5 F } |.+.e VXS o T ~ ~ l.C.t Q s i.R OXhX= G / p.R n B.A.Y.G.",
"t.t.( ( ( ( Y E tXC.:.j I.7.I...@X3X@ |.iX%XaXb.f.&Xt ! 0 B 9 l.rXD S } 3.<.1.GXb.@.d ! ~ !.z.u I s r.0 w sXF { Z A n m GXi #.*X",
"q.q.U U U U Y ^ VX3XHXj P.6.7XcXn.m.JXn.%.hXq n i C.f d.T ^ 9 J hXn.} } 6X6X1XM.xXpX%.f R %Xz.V w.a.I ^ @ lXBXMX<XO.z Y.qXqXDXqX",
"S.9 x.9 u.L 9 [.m.; OX,XnXcX, H.S D ,.z.V.iX#.y f.iXs.t t 0 ^ t :X,X-X6X9.F : w lXwXzXT.y aX`.Z t.y.Y A # =X X .2X3XR.nXoXgXV.gX",
"jX8 ^ v.V J [.MXe q :XFX*X*.pXM.V N B Z R oXOXU.OXDXJXdXiXN.d t M =XpX2.4.F } | L.m F.nX;XpXz.5 U U B W L.P.# | @ n.mX;X@.0 X A ",
"bXoXt u R '.rX^ A i hXn.* ; iX<X] K K B 0 %.pX:XR O.gX&XfX$XA.fXmX;Xn.: - : : OX-.2 m kXR.n.1.` y.K ] +XvX7XL.lXK.K.zXj t T A 6 ",
"#.HXiXiXtXVXk.u X C.%Xr S A A ).H 9 K L T f fXU.6 & j.i f.B.U.fXD.;XDX/.<.+.l OXx n z D.>.;.(.Z L B MXZXcX9X4X;.%.B.HXm t A D W ",
";.K.X.%.u m.4 %.O GXq 4 k.9 J [.Y H K K 0 q OXo.E E [ u %.f.C.s.q O z.NXAX X:.HXO u u @.B.@X+X> W 2.1X| , 5.|.S 0 1 h.m t S X > ",
"l |.+.M.aXJX4 O C.hX1 4 3 8 L CX).q.Y P 0 X.U.b.= N N V o.OX+XR T T 9 * G.LXPXzXV N N 0 %.K.3XM.; -XAXXX9X=XS Z B 8 d.T.i S } M.",
"+ GX+X<./.aX<.X.OXN.@.R u [ & ).S.q.P I ! oXqXdXL N N 5 q iXk.V L K 9 $.M E.IXzXi.C / = 4 x  XSX8XLX8XI.vX>X4 ) y.9 d fXdXiX-XH.",
"X.m.e W % O.iXw $X$X4 3 l.L L x.S.r.Y ~ f B.o.b.!.N ` L 4 hXV 5 p H 3 ^ z b vXY.l.C Q.B E i +. X=X6., . v 6.6 N 9 9 d.jX%X@.oXC.",
"%.m.Z N ' & bXJ.eXn ~ K / ( 9 Z.A.R L V o.,Xn.; +XD N l.%.dX~ H e.e.P p 9 y kX>.'.' ) L H 9 u &XG.k l } } +X  W &X&X$XB.@.a H Y ",
"K.R K / / V zXkXR.n ~ K / ( I _.f.i [ ~ c LXKX<.+.+XD 5 b.DXH U q.r.0.P H 8 R.v $.!.B ] 9 ~ d A.K.c @ O S aX<.-X:XlXOXn 0 i.p.t.",
"fXi N C 5 9 OXnXF.2 J ) _ K T qXf.b.5 V 4XmXH.NX|.m.E D %.iXJ Y I q.y.U K u I.b OXBXS ,.6 A R B.K.OX&X/.(.(.M.GXx n.B.X.u ~ H 3 ",
"fXb.V K Z V B.mXM 2 E { ` K R OXB.i D <XHXG.@ O.%Xm.[ W #.#XI u.Y 0.( K L @.kXW.AX5X|./.b.X.C.K.oXm./.2XaXe w C.|.M.%.i 4 8 i.).",
"-.oXV K { V %.;Xz } [ Z N E %.g.$X_.].z.iXx r q %.hX`.4 B.dX0 Y U / / B ] m.vXvXXX3.AXHX:XxXFX$XO.V u <.oX; o.@XhXm.u u u ^ ].VX",
"h.xXj.5 ] 6 %.Y.g.i A { ' V o.L.:XGX<X0 C.w r $.X.#XrXj.A.dXT J ( / _ C { M.7X9X$ + H.>Xl 4XK.w 0 ~ ,.O.|.3.:XZXO.e & A m.%X_.%.",
";XxXgXE ~ A C.OX$X+.W <XuX<.;.,XC.%.`.VX%.O R X @.R '.].k._.s.J ( / ( C x.n.I.I.l } =.lX*.K.X.e E L 0 u iXxXK.o.A A 6 V m.iXOXx ",
">.o.hX[ V A <.%.C.%XyXBXVXDXlXL.w %.$.gXS 4 0 T 3 v.].0 @.#X%.T Y K ` B z.n.E.E.@ - w pXFXX.4 E B 5 8 W qXpX#.r u E E W m.OXP.c ",
":.x gXS W W @.C.S aXz.E S F :X*Xr i X.gX3 a ^ Q ~ 7 rX'.4 k.C.3 u.B Y ~ T xXR.R.O A t iXtX6 Q B N ] 0 V.0X$X#.q u 6 [ yXS sXcX, ",
"J.w /./.A W O.%.m.+XW W D e n.C.} r ;.1X6 J ~ I e.3 r.gX'.'.&X@.J u.I T 0XqXkXR.~ ~ 4 _.'.8 L B K ~ v.0Xb.s.X.u 4 z.yX(.oXlX=.8X",
"K.@ %.VXu u %.k.%X$.u D A 0 R $.m.e K.A.J I q.I q.I 7 v.x.).dXb.J i.d R dX#.nXB.Y ) 6 _._.9 U K L T %XDX$.f t e ,.gX^.m.ZX+.$ 8X",
"m.q S JX<.q k.&X%X0 6 T 0 T 0 T %Xr >X%.I U w.w.0.p.p 9 9 L `.&XT 0 Z.dXiXy nXf B ( T #X_.6 Y ) W W &XjX$.f 4 R rX^.S hXiX@ | L.",
"m.F q sXiXi <.gX_.4 d a 9 L 9 J MX} zXx L U 0.0.0.P e.e.) B R xXk.R oX&XX.+ Y.%./ / R C.C.S ~ ~ x n.C.oXW u 0 _.%X4 k.ZXr w : } ",
"(.W X M.GX%.O.%XN.d ! J J Y H K yX+.zXy I ( y.0.0.P e.I / ( 4 |.1XtX&X;.w @ m %X/ / A K.*Xb.W - 2 L.K.oXW 6 ^ %X! X.y $Xx +.X.* ",
"1.F - <.ZXn.R V.V.r.! Q e.Y P y.`.+.kXy Y U y.0.0.a.q.7 B K 6 r m.1X4X-X4X XK.1XG C S P.=XL.n.+.5.kXJ.oXW V ].'.O f.  :XxX|.aX+X",
"D F F m.3Xn.R V.V.v.d ~ p.P U Q.z.o.;Xz ) ( y.0.0.a.s u.y.B u r F : } =.L.-XKXGX` ` S &.5.P.4XHXLXLX>.M.4 E VX'.f y m zXFXo.O.NX"
};
