/* XPM */
static char *_d2c038484014ea8d7ba2b305634ae66ErAMUQrVeFcBXfwx[] = {
/* columns rows colors chars-per-pixel */
"64 64 219 2 ",
"   c #192F3C",
".  c #1A353E",
"X  c #282E33",
"o  c #23353D",
"O  c #293938",
"+  c #2B3C3C",
"@  c #343E38",
"#  c #2C453F",
"$  c #3D4937",
"%  c #34443C",
"&  c #39473A",
"*  c #3C4B3B",
"=  c #3F513E",
"-  c #454A3B",
";  c #464A3C",
":  c #44543B",
">  c #495A3C",
",  c #54553E",
"<  c #525A3D",
"1  c #4E603F",
"2  c #54663E",
"3  c #5A6B3E",
"4  c #5E713F",
"5  c #1B3A45",
"6  c #273D43",
"7  c #1A4554",
"8  c #164956",
"9  c #1B4B5B",
"0  c #1A565D",
"q  c #1B555E",
"w  c #244146",
"e  c #2A4244",
"r  c #284849",
"t  c #354B42",
"y  c #364B46",
"u  c #3D5747",
"i  c #35514C",
"p  c #234D56",
"a  c #254F5A",
"s  c #255457",
"d  c #365755",
"f  c #0F5769",
"g  c #195C67",
"h  c #175E73",
"j  c #295A66",
"k  c #375A64",
"l  c #0F606B",
"z  c #19636A",
"x  c #0B697B",
"c  c #186877",
"v  c #286269",
"b  c #36636A",
"n  c #296572",
"m  c #296B78",
"M  c #366876",
"N  c #26707D",
"B  c #38727A",
"V  c #435441",
"C  c #455B43",
"Z  c #4B5946",
"A  c #435D48",
"S  c #585E42",
"D  c #46624B",
"F  c #4B6548",
"G  c #556645",
"H  c #5A6E41",
"J  c #5D7244",
"K  c #57744C",
"L  c #587951",
"P  c #646844",
"I  c #6B6C45",
"U  c #627641",
"Y  c #647B44",
"T  c #687948",
"R  c #737446",
"E  c #777C48",
"W  c #43656E",
"Q  c #5F8254",
"!  c #6C8243",
"~  c #66834C",
"^  c #6A844C",
"/  c #758C45",
"(  c #788D46",
")  c #748649",
"_  c #779046",
"`  c #7A9346",
"'  c #7C954A",
"]  c #648552",
"[  c #668A54",
"{  c #6A8D53",
"}  c #688857",
"|  c #6B935A",
" . c #6E975B",
".. c #759857",
"X. c #7DA255",
"o. c #7AA45D",
"O. c #7FAB5F",
"+. c #688B67",
"@. c #689269",
"#. c #6E9B6E",
"$. c #739A64",
"%. c #749C6C",
"&. c #7C9D6B",
"*. c #6B9572",
"=. c #729870",
"-. c #76A465",
";. c #7CA464",
":. c #7CA962",
">. c #73A169",
",. c #85864B",
"<. c #8D8C4E",
"1. c #918E4F",
"2. c #83934A",
"3. c #839C49",
"4. c #8B984C",
"5. c #93924F",
"6. c #939C4E",
"7. c #899553",
"8. c #969651",
"9. c #9A9A53",
"0. c #A19E53",
"q. c #86A34B",
"w. c #8AA449",
"e. c #8DA94C",
"r. c #95A44E",
"t. c #92AD4C",
"y. c #95B24D",
"u. c #9AB54E",
"i. c #9BB94E",
"p. c #85A856",
"a. c #8BAC53",
"s. c #83AD5D",
"d. c #8AAE5B",
"f. c #9DA151",
"g. c #92AE5D",
"h. c #98AA59",
"j. c #8DB256",
"k. c #87B05B",
"l. c #8AB059",
"z. c #94B553",
"x. c #9AB653",
"c. c #97B851",
"v. c #9BB850",
"b. c #94B25A",
"n. c #9CB25C",
"m. c #A0B94F",
"M. c #A4A254",
"N. c #A3AB53",
"B. c #ADAB56",
"V. c #A9A959",
"C. c #B2AE58",
"Z. c #A3B655",
"A. c #AAB555",
"S. c #A4B951",
"D. c #ABB954",
"F. c #A4B45C",
"G. c #ACB65B",
"H. c #AEB858",
"J. c #B3B657",
"K. c #B3BA56",
"L. c #B3B65D",
"P. c #BAB75C",
"I. c #B5B959",
"U. c #BCBA5A",
"Y. c #819E6C",
"T. c #83A563",
"R. c #8BA566",
"E. c #83AB61",
"W. c #8BAC61",
"Q. c #84A169",
"!. c #8BA369",
"~. c #95A767",
"^. c #98A765",
"/. c #93AD61",
"(. c #9BAA64",
"). c #91A569",
"_. c #97B060",
"`. c #A4AE63",
"'. c #A8AF62",
"]. c #A5B160",
"[. c #ACB161",
"{. c #B1B360",
"}. c #C0BB5B",
"|. c #0B6F83",
" X c #09778B",
".X c #1B7887",
"XX c #167589",
"oX c #277886",
"OX c #347A8B",
"+X c #2B7A90",
"@X c #1A828B",
"#X c #088491",
"$X c #188C9A",
"%X c #17939C",
"&X c #2A8796",
"*X c #358798",
"=X c #27959B",
"-X c #0A98A2",
";X c #1998A9",
":X c #2B93A4",
">X c #3C9DAD",
",X c #18A7AA",
"<X c #1DA0B1",
"1X c #2DADB7",
"2X c #478798",
"3X c #4295A4",
"4X c #43ABB8",
"5X c #07ACC1",
"6X c #04B3C4",
"7X c #3BAFC2",
"8X c #38B5C7",
"9X c #4EAEC1",
"0X c #58B7C5",
"qX c #68B2C7",
"wX c #34C4C7",
"eX c #4FC8D3",
"rX c #53D7E6",
"tX c #7FD7EB",
"yX c #5AE7EE",
/* pixels */
"6X5Xg p l .X4XrX.X+ % 9 |.#X=Xb 9  X|.f - t o & 8 9 oXc XXj n 8X&X@ - e w t - 5 0 B S Z n 8 d B p & OXx c @ , B 8X-X$X0 0 @X>XtX",
"5X X3 w.* & i p t F  .% R Z i 8.I o K C M.E 4 3.- R V U u ] A k e 1.B...} 5.0.* L E U.N.& ; M.E : e.V A + E J.V b g 8 U ` d 9XtX",
"5Xh : y.3.e.3.< t.r.g.1.}.,.<.U.R * ..9.C.B.y.3.2.D.p.c.t.z.T 5.<.,.}.G.L.}.,.) L.B.D.S.e.E N.D.` t.q.d.8.8.9.,.B.I D c.y.A eX>X",
"f D C ] z.i.u.3.u.S.D.I.U.Z.I.H.Z.6.6.}.U.}.D.A.S.i.v.v.i.i.x.D.K.L.D.K.K.D.A.D.U.}.U.K.D.D.S.i.m.i.i.S.S.H.L.K.r.S | p.4 : B $X",
"9 | O.z.c.c.c.v.i.i.i.i.S.i.S.i.i.i.S.K.D.D.K.K.D.x.n.x.u.u.i.i.i.S.i.S.i.i.i.i.K.K.D.K.K.D.n.b.x.x.v.i.i.i.S.m.e...O.p.w.y.A XX",
"oXt C X.l.s.:.:.b.D.U.D.x.z.j.l.v.i.v.i.i.i.i.z.s.:.:.:.:.d.Z.U.K.S.z.z.l.c.i.i.x.i.i.i.c.d.O.:.:.:.s.n.I.U.S.z.z.s.s.y._ > b $X",
"+XH 3.e.v.j.s.l.d.n.D.F.b.l.j.l.z.c.s.s.l.j.z.l.l.c.z.s.l.s.b.D.F.b.l.j.j.l.i.s.s.j.l.z.l.s.c.c.s.l.d.j.F.D.n.j.l.z.s.z.y.& &X<X",
"9XD ! ( q./ t.Z.R.T.s.T.s.s.s.:.s.s.s.j.s.j.c.c.d.d.d.z.S.g.;.s.T.s.s.s.O.s.l.s.j.s.l.c.i.d.d.d.d.S.n.T.s.T.s.s.s.s.:.:.s.D oX-X",
">Xy P P P ,.f.U.L.!.!.'.^./.d.l.l.:.l.z.c.x.g./.(.).~.(.U.L.(.&.'.(.(.d.l.j.:.s.z.z.x.z.d.(.(.).^.L.P.[.&.(.(.(.W.l.j.s.:.7.R n ",
"A 9.f.n.n.L.F./.W.F.F.S.K.K.D.i.c.d.b.F.F.F.F.K.F.n.L.G.n.E.n.n.S.D.K.K.S.i.l.g.F.F.F.n.H.H.n.G.G.F.W./.n.Z.D.K.K.S.i.z.d.V.1.b ",
"r - _ c.z.d.:.:.:.:.:.s.j.d.b.i.i.x.m.m.S.D.S.i.c.z.j.s.:.:.:.:.s.l.l.l.c.i.v.i.m.S.D.S.i.v.z.j.s.:.:.:.:.O.l.l.d.z.i.x.b.^ 6 :X",
"N % 2.v.z.j.s.j.z.O.s.b.n.F.L.S.i.i.i.S.K.I.K.D.i.z.j.l.l.c.s.O.l.n.n.L.Z.i.i.i.i.D.I.K.K.S.c.z.l.s.z.j.:.s.b.n.G.H.i.i.i.u.Y z ",
"u 2.h.c.i.i.i.i.i.c.c.n.G.n.n.H.Z.Z.z.c.x.i.S.S.i.i.i.i.i.i.v.c.n.F.F._.A.D.Z.x.z.x.x.i.S.S.i.i.i.i.i.i.c.z.F.F.n.F.H.Z.n.v.q.s ",
"e > X.s.z.i.i.i.i.z.l.j.z.s.:.E.E.E.:.:.O.d.l.z.i.i.i.i.i.i.x.j.l.z.l.:.E.W.E.:.:.:.s.l.j.c.i.i.i.i.i.i.z.l.z.j.s.:.W.E.:.] : f ",
"j ` i.i.c.d.T.T.d.T.E.c.D.D.d.z.z.j.l.j.z.x.v.i.i.i.z.E.;.d.T.T.z.S.K.b.l.c.j.l.j.z.x.c.i.i.i.c.d.T.s.d.T.d.i.D.Z.s.c.j.l.J 7 -X",
"p 2 3 ^ ;.Y.[.(.Q.[.[.F.U.}.L.x.i.D.K.K.U.x.j.T.;.T.%.`.'.Q.(.{.F.I.}.U.Z.i.S.D.K.U.D.c.E.;.T.&.).[.!.!.{.[.A.}.U.A.i.i.D.6.y z ",
"g & ,.8.V.'.P.P.P.U.K.U.P.G.U.K.S.S.D.D.n.T.Q.'.).(.'.L.U.L.U.K.K.U.G.P.U.D.S.D.D.Z.E.Q.(.(.).[.'.U.P.U.U.K.U.L.L.U.D.S.S.6.<.- ",
"s 3.S.U.D.F.n.E.b.D.i.b.W.E.H.K.S.i.S.K.G.L.L.D.U.K.F.F.W.d.Z.i.z.g.:.n.K.D.i.S.D.L.[.L.D.K.U.Z.F./.E.Z.S.c.b.E.d.K.D.S.S.A.P . ",
"h 1 z.Z.l.:.:.-.O.l.s.:.l.s.l.v.i.S.D.S.D.D.i.i.Z.b.:.:.:.:.s.l.:.s.s.s.c.i.m.D.S.D.K.S.i.x.n.s.:.:.:.s.l.O.:.l.s.j.i.i.h.h.3.$ ",
"9 U c.l.s.z.j.l.d.:.s.l.c.i.c.c.i.c.s.c.i.i.i.x.j.s.j.z.l.j.s.s.l.z.i.c.c.i.v.l.j.i.i.i.v.z.s.s.c.l.j.s.:.l.l.i.v.c.x.i.^ C 3.* ",
"U y.S.D.D.D.x.v.c.j.c.v.c.i.c.s.s.:.:.s.c.x.S.I.D.D.D.x.v.x.j.j.i.c.i.v.s.O.s.:.s.z.c.x.K.K.D.H.Z.x.v.z.j.c.c.v.i.j.:.s. .% = p ",
"C ( Z.U.H.b.s.s.:.:.:.s.:.:.;.:.:.:.-.:.s.z.D.U.U.K.n.d.s.:.:.:.s.:.:.;.:.:.:.-.;.s.l.S.I.U.U.F.l.s.O.:.:.O.s.:.:.;.:.:. . .z.Y ",
"N Z V.K.v.v.l.O.:.:.:.%.%.=.*.&.T.T.Y.%.z.D.I.U.U.x.i.z.s.:.:.:.-.#.%.*.%.T.T.Q.%.d.S.K.U.U.S.c.c.s.:.:.:.-.#.%.*.*.;.^ F F e.H ",
"e M.}.K.D.i.i.z.l.E.;.%.'.L.!.[.[.L.P.`.H.S.S.D.I.D.S.i.c.j.E.;.%.~.L.(.(.L.[.U.'.G.D.S.D.U.D.S.i.c.z.s.E.&.Q.[.'.).L.8.0., @ j ",
"  I <.S.S.i.i.i.S.Z.A.L.U.K.U.U.U.U.U.}.U.U.S.S.D.S.m.i.i.i.Z.A.G.U.K.U.U.I.U.I.}.U.U.D.S.D.S.S.i.i.i.S.Z.G.P.U.I.U.I.U.J.R I y ",
"# Y J r.S.S.x.i.i.i.i.S.D.i.D.m.i.x.S.U.I.U.K.U.D.S.Z.S.i.i.i.i.S.D.i.S.S.i.S.S.U.U.I.I.I.K.S.Z.S.i.i.i.i.i.D.S.S.D.i.S.u.u.U., ",
"$ ` 3.j.:.:.s.s.x.S.K.S.x.v.c.z.i.i.i.i.i.i.m.x.j.s.:.s.s.z.S.D.D.x.x.x.z.i.i.i.i.i.i.m.x.z.s.:.s.s.l.x.D.D.S.v.v.z.c.i.u._ P w ",
"8 X ` c.j.s.:.s.d.F.U.A.b.s.l.d.z.i.l.j.c.c.c.s.s.j.l.:.s.s.n.I.K.n.d.l.l.l.i.j.l.c.z.c.l.s.l.j.O.s.s.b.H.I.F.j.s.l.d.z.z.{ o  X",
"0 u ) E.z.z.c.x.s.d.b.d.l.l.j.s.l.l.:.s.O.s.z.c.z.c.c.z.x.d.s.b.d.l.k.j.d.s.z.:.s.s.s.z.c.z.c.x.j.v.b.s.z.d.d.s.j.l.s.l.s.| + x ",
"t $.+.+.d.Q.F.U.'.%.&.~.T.E.s.s.s.:.j.c.c.x.c.d.R.Q.T./.I.G.!.%.).T.W.:.s.s.:.s.c.z.c.c.d.R.Q.T.R.H.L.~.%.!.R.E.E.s.s.s.O.' ( r ",
"8 V V 7.[.L.L.F.n.].F.D.L.L.Z.i.c.E.d.b.n.n.(.G.L.].L.L.G.n.G.(.D.L.I.A.x.i.s.W.b.n.F.n.].L.F.L.L.L.n.F.(.A.D.I.H.S.i.j.E.b.( e ",
"g / / p.j.b.E.:.:.E.d.j.x.b.n.i.x.x.S.S.S.S.S.S.z.j.b.W.:.:.:.s.l.c.z.n.x.i.c.Z.S.S.S.S.S.n.j.b.d.E.:.:.W.l.z.x.n.x.i.c.x.S.2.g ",
"g _ i.i.i.j.s.s.l.:.:.s.l.b.F.v.i.i.i.S.D.I.K.S.i.c.j.s.s.j.:.:.s.d.l.F.x.i.i.i.i.S.K.K.D.i.c.z.s.s.l.s.:.:.s.d.n.n.i.i.t./ / s ",
"r ( u.i.i.i.c.i.i.z.c.Z.H.H.G.D.S.i.v.x.D.S.D.K.x.c.c.c.v.i.z.z.n.H.H.G.K.S.S.x.v.S.D.S.K.S.v.c.c.c.i.c.z.x.A.H.G.L.D.S.3.= V 7 ",
"r ( 3.l.d.j.j.i.i.c.l.d.b.E.:././.d.E.s.s.j.z.c.i.i.i.i.i.i.i.z.d.b.d.:.W./.d.W.O.s.l.j.z.v.i.i.i.i.i.i.c.d.b.j.:.E./.W... .a.: ",
"x @ 3.v.z.z.d.d.c.s.d.i.S.n.s.l.l.s.s.s.l.j.z.i.i.i.i.d.d.c.d.s.z.i.S.j.s.j.s.s.s.s.j.z.c.i.i.i.z.d.z.z.s.j.i.S.z.s.j.s.s.[ : s ",
"#X+ ! 3.! } ^.Q.&.~.(.n.I.U.F.x.i.x.Z.D.K.S.c.d.d.d.;.~.!.&.!.(.g.D.U.H.z.i.x.S.D.K.D.i.d.d.j.T.!.~.&.Q.(.^.Z.U.U.n.i.i.x.2.X 7 ",
"w I R $ I 1.U.P.{.U.U.U.U.P.U.D.S.D.K.K.A.W.;.).&.!.).[.}.{.P.U.P.U.U.U.K.S.D.K.K.D.g.T.!.!.&.).(.}.L.L.U.U.U.U.U.U.S.S.D.6.8.- ",
", U.I.B.I.I.G./.F.K.S.Z.n.W.I.U.D.i.i.D.n.(.[.K.L.I.K.L.n.n.K.S.S.F.W.G.U.K.x.i.S.A.(.[.H.I.L.K.L.F./.H.D.x.F./.n.U.I.S.i.u.( y ",
"y / u.K.z.:.:.-.s.z.j.:.s.O.b.x.i.S.D.D.I.K.S.i.D.Z.s.:.:.:.z.z.s.:.O.d.x.i.i.D.D.K.U.D.i.S.D.l.:.:.:.l.c.s.:.O.s.x.i.i.D.4.3 o ",
"j U j.l.:.l.s.s.s.:.s.s.c.c.z.c.i.x.z.i.i.i.i.c.j.s.s.l.s.s.:.:.s.j.x.z.c.i.i.z.c.i.i.i.c.j.s.O.j.s.s.:.:.s.s.i.z.z.i.i.x.z.q.r ",
"T i.i.x.n.S.v.i.c.j.c.c.x.i.i.l.l.s.:.j.i.i.x.D.S.x.Z.x.c.i.j.z.v.c.i.i.j.l.l.:.s.v.i.i.D.Z.x.Z.S.c.i.z.j.x.c.i.i.c.s.j.s. .C z ",
"Y e.3.N.P.n.j.l.s.:.s.l.s.j.s.:.:.:.:.:.s.z.D.U.U.U.F.j.l.s.s.s.l.s.l.d.:.:.:.:.:.s.l.Z.U.U.U.L.b.j.s.s.:.d.l.l.j.:.:.:.k.a.X.K ",
"a + @ f.x.z.l.:.;.:.:.-.>.*.*.;.E.:.%.-.z.S.K.U.U.S.z.j.s.:.:.:.-.>.#.*.>.:.s.%.%.s.x.D.U.U.D.c.z.s.:.:.:.:.>.%.*.@.F C L ~ t.Y ",
"t | F ) c.i.c.l.s.:.-.=.!.(.%.~.(.`.[.!.F.D.D.I.I.S.i.v.j.s.:.;.#.Y.(.Y.Q.(.(.{.).n.D.D.K.U.D.S.i.z.s.:.:.>.=.(.).$.5.,.I I $ . ",
"% | p.p.l.c.i.i.x.n.(.`.U.U.L.U.U.U.U.U.U.D.x.S.D.D.S.i.i.i.n.n.(.P.U.L.P.U.U.U.}.U.K.S.i.D.D.S.i.i.i.n.n.(.[.U.U.L.U.}.U.L., n ",
"  G J.D.S.S.i.i.i.i.S.D.K.S.K.S.S.S.D.U.U.U.K.K.D.S.S.S.i.i.m.S.D.K.S.D.D.S.D.S.U.U.U.I.K.K.S.S.S.i.i.m.i.S.K.D.S.K.S.D.S.S.9.d ",
"& ( 4.z.d.d.z.z.i.i.S.i.i.i.x.v.i.i.m.D.S.S.D.D.n.j.d.z.z.c.i.S.S.i.i.i.x.i.i.i.S.S.S.D.D.S.b.d.j.z.z.i.S.S.i.i.i.v.i.i.i.e.- n ",
"n i [ s.s.:.:.:.l.H.U.H.n.l.l.s.c.i.z.c.i.i.c.l.O.s.s.:.:.s.F.U.I.F.l.j.s.j.i.c.z.i.i.i.z.s.s.s.:.:.:.n.I.U.A.b.l.l.l.i.i.e.3 0 ",
"7X7 H e.i.z.j.z.d.b.Z.b.j.l.z.l.j.z.:.s.s.l.z.j.z.i.c.j.c.d.d.Z.n.z.l.j.j.l.c.s.:.s.s.z.z.j.c.i.j.z.j.d.x.n.z.j.j.z.s.c.l.l._ c ",
"M , I < ) E.n.H.^.&.;.T.:.E.O.:.s.:.l.c.j.c.c.z.E.T.E.d.D.`.&.;.Q.;.E.s.:.O.s.s.c.j.z.c.c.E.T.E.E.Z.G.Q.&.Q.T.:.s.:.:.s.:.p.: 6 ",
"k M.I.B.M.L.P.L.G.(.^.L.[.F.b.c.z.:.s.j.z.x./.(.[.`.[.[.P.G.[.!.L.G.G.n.z.c.s.s.j.b.x.g.(.[.'.'.[.P.G.G.).F.G.G.n.z.c.l.:.o.[ d ",
"m T i.b.b.F./.E.:./.b.x.S.Z.Z.i.c.b.n.A.D.Z.Z.D.n.l.F.b.W.:.W.b.c.S.Z.A.x.i.z.n.A.A.D.Z.D.F.l.n.n./.:.E.g.z.x.S.A.S.i.z.j.~ + 3X",
"*X6 ( i.z.l.O.:.s.:.:.O.s.d.b.v.i.i.i.i.S.K.D.i.i.c.j.s.:.s.:.:.:.s.s.g.z.i.i.i.i.S.D.D.S.i.c.j.s.:.s.:.-.:.s.s.d.b.i.i.i._ $ w ",
"k <.Z.v.c.z.j.c.x.s.j.n.A.K.P.D.i.i.i.S.K.D.K.K.x.c.z.j.z.i.j.l.z.A.A.P.D.m.i.i.i.D.K.D.K.S.c.z.z.z.i.z.s.z.Z.A.I.I.S.i.i.3.3.u ",
"j J 3.z.z.v.i.i.i.i.z.b.n.W.W.F.n.n.j.l.z.c.x.x.i.i.i.i.i.i.i.c.l.n.g.E.n.F.n.b.l.j.c.c.x.x.i.i.i.i.i.i.c.j.n.b.E./.F.n.n.^ y +X",
">X9 T b.j.z.c.c.i.j.l.c.x.z.O.s.s.:.:.:.s.l.j.c.i.i.i.c.c.i.c.d.z.i.z.s.:.s.:.:.:.:.s.l.z.c.i.i.x.c.i.x.j.j.c.c.l.:.s.:.s.q.F .X",
"OXG J.U.F.T.!.&.T.Q.R.b.K.U.b.c.i.c.z.n.Z.m.i.c.c.c.d.R.&.T.Q.R.g.D.U.F.z.i.c.c.x.Z.S.i.c.c.x.d.T.Q.;.T.!.W.x.I.H.b.i.s.X.3.H 2X",
"d M.C.U.I.A.U.[.(.P.P.L.U.U.U.S.i.D.K.U.K.b.s.Q.%.&.&.[.P.(.[.U.L.U.}.U.D.i.D.K.U.U.n.d.Q.&.&.Y.~.U.'.`.U.L.L.}.}.K.j.;.$.K w 0X",
"n P ; 3.x.S.K.D.U.U.D.K.G.n.U.U.D.S.S.S.n.R.~.L.'.G.L.L.G.G.U.D.D.P.n.L.U.K.S.x.S.Z.R.~.'.L.[.P.L.L.G.U.K.D.I.F.G.P.E.#.>.-.i 4X",
"1Xg > e.j.i.e.l.b.x.z.s.E.:.n.D.S.i.D.K.L.U.K.S.K.N.j.W.:.E.z.v.l.s.:.b.D.S.S.D.A.I.L.K.S.4.f.a.d.E.o.b.x.j.s.o...b.s.;.$.u 0 :X",
"wXv 3.v.Y ' > [ L { [ { z.X.p._ i.t.E e.S.S.t.y.! ~ k.s.:.:.L ~ Q J j.X.z.e.D.5.3.S.S.t...| * K s.Q L :.[ o...p.> / _ _ v.H .X%X",
"1X@XC Y d v z M u -.K + 2 : e.: Y q.& % e.i.Y ) : 3._ ] { q.^ 6 a 2 _ D Y V R - 3.( t.w.C K o G ` i d F % p.J t 5 j 5 H w.C 4XeX",
",X,X.XoX4X8X<X8Xn t + c XXx & v oXs M h F Y c g   $ e w e $ @ c %X0 s &X*X*Xb b & O Y 1 j OX3Xb W qX*X&X8 $ % &X;X;X:X2Xb N 1XyX"
};
